<svg xmlns="http://www.w3.org/2000/svg" viewBox="0 0 232.4 42.27"><defs><style>.a{fill:#fbc800;}.b{fill:none;}.c{fill:#141515;}</style></defs><path class="a" d="M33,36a2.12,2.12,0,0,1,1.5-3.61,2.06,2.06,0,0,1,1.49.62,2.1,2.1,0,0,1,.62,1.5A2.08,2.08,0,0,1,36,36,2.12,2.12,0,0,1,33,36Zm8.68-22.22.92-.93A22.58,22.58,0,0,0,33.05,3.3l-.92.93A23.26,23.26,0,0,1,41.72,13.82ZM25.22,25.68l7,7a2.29,2.29,0,0,1,.21-.23,1.64,1.64,0,0,1,.24-.21l-7-7Zm1.05-1.13,7.18,7.18a3.06,3.06,0,0,1,1.09-.2,3,3,0,0,1,2.13,5.13,3,3,0,0,1-4.26,0,3,3,0,0,1-.88-2.13,3.11,3.11,0,0,1,.21-1.09l-7.13-7.12-.8.86L28.31,32a3.61,3.61,0,0,1,1,2.5,5.26,5.26,0,0,0,9.06,3.69,5.26,5.26,0,0,0-3.8-8.88h0a3.62,3.62,0,0,1-2.52-1l-4.9-4.61Zm-12.53,8.1L32.06,14.33l-.45-.45L13.29,32.21l.24.21A2.29,2.29,0,0,1,13.74,32.65ZM43.3,12.23,44.55,11A22.37,22.37,0,0,0,35,1.39L33.71,2.64A23.44,23.44,0,0,1,43.3,12.23ZM11.41,32.43a2.12,2.12,0,0,0-2.12,2.12A2.08,2.08,0,0,0,9.91,36a2.12,2.12,0,0,0,3,0,2.12,2.12,0,0,0-1.49-3.61Zm2.8,1a3,3,0,0,1,.2,1.09,3,3,0,1,1-3-3,3,3,0,0,1,1.08.2L31,13.25l-.46-.46L14,28.32a3.66,3.66,0,0,1-2.48,1h-.09a5.25,5.25,0,0,0-3.8,8.88,5.26,5.26,0,0,0,9.06-3.7,3.56,3.56,0,0,1,1-2.49L33.17,15.43,32.7,15Zm-.34-19.13,6.41,6.4.46-.43-6.42-6.42ZM15,13.25l6.43,6.43.69-.65-6.66-6.24ZM39.32,30.18a6.6,6.6,0,0,1,1,1.37l.72-.72a.28.28,0,0,0,0-.4l-2.35-2.35a.27.27,0,0,0-.2-.08.28.28,0,0,0-.21.08l-.72.72A6.4,6.4,0,0,1,39.32,30.18ZM28.79,37.54l-.72.71a.3.3,0,0,0,0,.41L30.42,41a.28.28,0,0,0,.41,0l.72-.7A6.22,6.22,0,0,1,30,39.13,6.59,6.59,0,0,1,28.79,37.54ZM13.19,15l-.41.42L18.93,22l.69-.65L13.24,15ZM8.42,28.8l-.73-.72a.29.29,0,0,0-.4,0L4.94,30.43a.29.29,0,0,0,0,.4l.72.73a6.23,6.23,0,0,1,1-1.37A6.44,6.44,0,0,1,8.42,28.8ZM16,39.12a6.45,6.45,0,0,1-1.6,1.17l.72.71a.28.28,0,0,0,.41,0l2.34-2.34a.28.28,0,0,0,0-.41l-.7-.72A6.4,6.4,0,0,1,16,39.12ZM12.23,2.64,11,1.39A22.44,22.44,0,0,0,1.38,11l1.25,1.25A23.4,23.4,0,0,1,12.23,2.64ZM3.29,12.9l.93.93a23.4,23.4,0,0,1,9.59-9.6l-.93-.92A22.58,22.58,0,0,0,3.29,12.9Zm11.18-8,5.64,5.65-1.22,1.22-.95-.95a1.59,1.59,0,0,0-1.13-.47,1.63,1.63,0,0,0-1.14.47l-4.89,4.89a1.59,1.59,0,0,0-.47,1.13A1.63,1.63,0,0,0,10.78,18l1,.95-1.22,1.22L4.87,14.48A22.63,22.63,0,0,1,14.47,4.88Zm-4.55,7.5a1.73,1.73,0,1,0,0-2.44A1.73,1.73,0,0,0,9.92,12.38Zm15.9-1.85,5.65-5.65a22.55,22.55,0,0,1,9.59,9.6l-5.64,5.64L34.2,18.9l.95-.95a1.59,1.59,0,0,0,.47-1.13,1.61,1.61,0,0,0-.47-1.14L34.44,15,31,11.5l-.7-.71a1.61,1.61,0,0,0-2.27,0l-.95.95Zm7.75,1.85A1.73,1.73,0,1,0,36,9.93a1.73,1.73,0,0,0-2.44,2.45Z"/><path class="b" d="M29.68,4.88,28.43,6.13a26.51,26.51,0,0,1-5.24-2,.49.49,0,0,0-.44,0,26.16,26.16,0,0,1-5.29,2l0,0L16.21,4.89C19.48,4,21.74,3.08,23,2.1,24.18,3.08,26.43,4,29.68,4.88Z"/><path class="c" d="M23,36.54a.4.4,0,0,1-.26-.08l-4.48-3.25a2.88,2.88,0,0,1,.3-.39l.28-.3,4.16,3,4.17-3,.28.3q.16.2.3.39l-4.49,3.25A.4.4,0,0,1,23,36.54Zm22.75-25-7.08,7.07v.86a18.06,18.06,0,0,1-2.12,8.44l-.2.37,1-1a1.5,1.5,0,0,1,2.13,0l2.35,2.34a1.53,1.53,0,0,1,0,2.14l-1.09,1.09A6.47,6.47,0,0,1,34.6,41h-.08a6.38,6.38,0,0,1-1.75-.25l-1.09,1.09a1.49,1.49,0,0,1-1.06.44,1.51,1.51,0,0,1-1.07-.44L27.2,39.49a1.51,1.51,0,0,1-.43-1.07,1.49,1.49,0,0,1,.43-1.06l1-1L23.33,39.9A.69.69,0,0,1,23,40a.61.61,0,0,1-.36-.11l-5-3.61A6,6,0,0,0,17.87,35L23,38.66l5.1-3.7v0c0-.16,0-.33,0-.5a2.32,2.32,0,0,0-.35-1.25,3.79,3.79,0,0,0-.3-.4l-.28-.29L23,28.05l-4.17,4.44-.28.29a3.79,3.79,0,0,0-.3.4,2.32,2.32,0,0,0-.35,1.25c0,.17,0,.34,0,.5a7.51,7.51,0,0,1-.23,1.34l1.09,1.09a1.48,1.48,0,0,1,.44,1.06,1.54,1.54,0,0,1-.44,1.07l-2.35,2.34a1.49,1.49,0,0,1-1.06.44,1.51,1.51,0,0,1-1.07-.44l-1.09-1.09a6,6,0,0,1-1.75.25h-.08a6.43,6.43,0,0,1-4.62-2,6.51,6.51,0,0,1-1.54-6.21L4.06,31.68a1.52,1.52,0,0,1-.44-1.06,1.54,1.54,0,0,1,.44-1.07L6.41,27.2a1.53,1.53,0,0,1,2.14,0l1.08,1.09-.22-.41a18.09,18.09,0,0,1-2.12-8.44v-.82l0,0L.18,11.51a.59.59,0,0,1-.11-.71A23.67,23.67,0,0,1,10.8.07a.61.61,0,0,1,.7.12l3.68,3.68,0,0c3.15-.8,6.21-1.86,7.32-3A.6.6,0,0,1,23,.67a.62.62,0,0,1,.45.19c.67.72,2.49,1.81,7.27,3v0L34.39.18A.59.59,0,0,1,35.1.07,23.67,23.67,0,0,1,45.83,10.8.61.61,0,0,1,45.72,11.5ZM16.21,4.9l1.23,1.23,0,0a25.23,25.23,0,0,0,5.28-2,.49.49,0,0,1,.44,0,26.45,26.45,0,0,0,5.24,2h0l1.24-1.24C26.43,4,24.18,3.08,23,2.11,21.75,3.08,19.48,4,16.21,4.9Zm8.3,5.17,3.2-3.21A27.55,27.55,0,0,1,23,5.05a26.18,26.18,0,0,1-4.78,1.82l3.19,3.2a.6.6,0,0,1,0,.86L19.3,13a.63.63,0,0,1-.86,0l-1.38-1.38a.36.36,0,0,0-.28-.12.36.36,0,0,0-.27.12l-.26.26,6.69,6.27,6.69-6.27-.26-.26a.36.36,0,0,0-.54,0L27.45,13a.63.63,0,0,1-.43.17.6.6,0,0,1-.43-.17l-2.08-2.08A.6.6,0,0,1,24.51,10.07ZM13,19.33,11.3,21.06a14.73,14.73,0,0,0,1.62,5.2q.24.43.51.87h0L18,22.81l-6.12-6.53-.26.26a.39.39,0,0,0-.11.28.39.39,0,0,0,.11.27L13,18.47A.6.6,0,0,1,13,19.33ZM18.93,22l.69-.65L13.24,15l-.05,0-.41.42Zm1.35-1.26.46-.43-6.42-6.42-.45.45Zm1.11-1.05.69-.65-6.66-6.24-.46.46ZM2.63,12.23a23.4,23.4,0,0,1,9.6-9.59L11,1.39A22.44,22.44,0,0,0,1.38,11Zm1.59,1.6a23.4,23.4,0,0,1,9.59-9.6l-.93-.92A22.58,22.58,0,0,0,3.29,12.9Zm6.29,6.3,1.22-1.22-1-.95a1.63,1.63,0,0,1-.47-1.14,1.59,1.59,0,0,1,.47-1.13l4.89-4.89a1.63,1.63,0,0,1,1.14-.47,1.59,1.59,0,0,1,1.13.47l.95.95,1.22-1.22L14.47,4.88a22.63,22.63,0,0,0-9.6,9.6Zm0,7.17a8.46,8.46,0,0,0,.44.77h.52a2.46,2.46,0,0,0,1.28-.35c-.21-.34-.41-.68-.59-1a15.54,15.54,0,0,1-1.67-5.09.59.59,0,0,1-.38-.18L8.51,19.84h0A16.83,16.83,0,0,0,10.49,27.3ZM5.66,31.56a6.23,6.23,0,0,1,1-1.37A6.44,6.44,0,0,1,8.42,28.8l-.73-.72a.29.29,0,0,0-.4,0L4.94,30.43a.29.29,0,0,0,0,.4Zm11.5,6a6.51,6.51,0,0,1-2.77,2.76l.72.71a.28.28,0,0,0,.41,0l2.34-2.34a.28.28,0,0,0,0-.41Zm16-22.1L32.7,15,14.21,33.46a3,3,0,0,1,.2,1.09,3,3,0,1,1-3-3,3,3,0,0,1,1.08.2L31,13.25l-.46-.46L14,28.32a3.66,3.66,0,0,1-2.48,1h-.09a5.25,5.25,0,0,0-3.8,8.88,5.26,5.26,0,0,0,9.06-3.7,3.56,3.56,0,0,1,1-2.49Zm-19.64,17a2.29,2.29,0,0,1,.21.23L32.06,14.33l-.45-.45L13.29,32.21Zm-.63.63a2.11,2.11,0,1,0-3,3,2.12,2.12,0,0,0,3,0,2.11,2.11,0,0,0,0-3Zm20-14.6,1.38-1.38a.41.41,0,0,0,.11-.28.43.43,0,0,0-.11-.28L34,16.25l-6.12,6.54,4.6,4.32,0,0a9.34,9.34,0,0,0,.5-.87,14.88,14.88,0,0,0,1.63-5.2h0l0,0-1.73-1.73A.6.6,0,0,1,32.89,18.45Zm-.24,13.76-7-7-.43.47,7,7a2.29,2.29,0,0,1,.21-.23A1.64,1.64,0,0,1,32.65,32.21Zm-.22,2.34A2.11,2.11,0,0,0,36,36a2.08,2.08,0,0,0,.62-1.49,2.1,2.1,0,0,0-.62-1.5,2.06,2.06,0,0,0-1.49-.62,2.1,2.1,0,0,0-2.11,2.12Zm-.88,5.75A6.22,6.22,0,0,1,30,39.13a6.59,6.59,0,0,1-1.17-1.59l-.72.71a.3.3,0,0,0,0,.41L30.42,41a.28.28,0,0,0,.41,0Zm6-11.5a6.4,6.4,0,0,1,1.81,1.38,6.6,6.6,0,0,1,1,1.37l.72-.72a.28.28,0,0,0,0-.4l-2.35-2.35a.27.27,0,0,0-.2-.08.28.28,0,0,0-.21.08Zm-3,.48h0a3.62,3.62,0,0,1-2.52-1l-4.9-4.61-.8.85,7.18,7.18a3.06,3.06,0,0,1,1.09-.2,3,3,0,0,1,2.13,5.13,3,3,0,0,1-4.26,0,3,3,0,0,1-.88-2.13,3.11,3.11,0,0,1,.21-1.09l-7.13-7.12-.8.86L28.31,32a3.61,3.61,0,0,1,1,2.5,5.26,5.26,0,0,0,9.06,3.69,5.26,5.26,0,0,0-3.8-8.88Zm2.88-9.48h0l-1.58,1.58a.65.65,0,0,1-.36.18v0a15.53,15.53,0,0,1-1.66,5.09c-.18.36-.38.69-.59,1a2.49,2.49,0,0,0,1.23.33h.08l.47,0h0c.15-.25.3-.51.44-.77a16.92,16.92,0,0,0,2-7.45v0Zm3.64-5.32a22.55,22.55,0,0,0-9.59-9.6l-5.65,5.65L27,11.75,28,10.8a1.61,1.61,0,0,1,2.27,0l.7.71L34.44,15l.71.71a1.61,1.61,0,0,1,.47,1.14A1.59,1.59,0,0,1,35.15,18l-.95.95,1.22,1.22Zm1.58-1.59A22.58,22.58,0,0,0,33.05,3.3l-.92.93a23.26,23.26,0,0,1,9.59,9.59ZM44.55,11A22.37,22.37,0,0,0,35,1.39L33.71,2.64a23.44,23.44,0,0,1,9.59,9.59Zm-32.18,1.4A1.73,1.73,0,0,0,9.92,9.94a1.73,1.73,0,0,0,2.45,2.44Zm21.2-2.45a1.73,1.73,0,1,0,2.44,0A1.73,1.73,0,0,0,33.57,9.93Z"/><path class="a" d="M71,25.86c0,3.36-3.08,6.44-10.22,6.44s-10.36-3.08-10.36-6.16A1,1,0,0,1,51.49,25H55a1.84,1.84,0,0,1,1.68,1.12c.42.7,1.26,1.54,4.06,1.54s3.78-1,3.78-1.82c0-2.8-13.58-.14-13.58-8,0-3.35,2.94-6.29,9.8-6.29,6.44,0,9.52,3.07,9.52,5.88a1,1,0,0,1-1.12,1.11h-3.5A1.8,1.8,0,0,1,64,17.47c-.25-.42-1.12-1.27-3.22-1.27-2.52,0-3.36.85-3.36,1.68C57.37,20.68,71,18,71,25.86Z"/><path class="a" d="M80.89,26.7V27H91.11a1,1,0,0,1,1,1v2.79a1,1,0,0,1-1,1H73.47a1,1,0,0,1-1-1V28.38a2.88,2.88,0,0,1,1.12-2.24l9.8-9V16.9H73.75a1,1,0,0,1-1-1v-2.8a1,1,0,0,1,1-1H90.83a1,1,0,0,1,1,1v2.39a2.82,2.82,0,0,1-1.12,2.23Z"/><path class="a" d="M107.21,15.92a1,1,0,0,1-1,1h-2.66V27h2.66a1,1,0,0,1,1,1v2.79a1,1,0,0,1-1,1H94.75a1,1,0,0,1-1-1V28a1,1,0,0,1,1-1h2.66V16.9H94.75a1,1,0,0,1-1-1v-2.8a1,1,0,0,1,1-1h11.48a1,1,0,0,1,1,1Z"/><path class="a" d="M122.05,31.74a1.66,1.66,0,0,1-1.54-1l-3.78-9.23h-.28v9.23a1,1,0,0,1-1,1h-4.2a1,1,0,0,1-1-1V13.12a1,1,0,0,1,1-1h5.88a1.66,1.66,0,0,1,1.54,1l4.9,11.9h.28l4.9-11.9a1.66,1.66,0,0,1,1.54-1h5.88a1,1,0,0,1,1,1V30.76a1,1,0,0,1-1,1H132a1,1,0,0,1-1-1V21.53h-.28L127,30.76a1.66,1.66,0,0,1-1.54,1Z"/><path class="c" d="M155.59,28.24h-8.82l-1,2.52a1.43,1.43,0,0,1-1.26,1h-4.48c-.56,0-1-.42-.7-1l7.84-17.64a1.49,1.49,0,0,1,1.26-1h5.74a1.44,1.44,0,0,1,1.26,1l7.84,17.66c.26.56-.14,1-.7,1h-4.76a1.44,1.44,0,0,1-1.26-1Zm-6.86-4.62h4.9L151.39,18h-.28Z"/><path class="c" d="M165.34,23.62V13.12a1,1,0,0,1,1-1h4.2a1,1,0,0,1,1,1v10.5c0,2.52,1.54,4.06,4.2,4.06s4.2-1.54,4.2-4.06V13.12a1,1,0,0,1,1-1h4.2a1,1,0,0,1,1,1V23.6c0,5.35-3.5,8.7-10.36,8.7S165.34,29,165.34,23.62Z"/><path class="c" d="M208.32,15.92a1,1,0,0,1-1,1h-5.88V30.76a1,1,0,0,1-1,1h-4.2a1,1,0,0,1-1-1V16.9h-5.88a1,1,0,0,1-1-1v-2.8a1,1,0,0,1,1-1h17.92a1,1,0,0,1,1,1Z"/><path class="c" d="M232.4,22c0,6.29-4.06,10.35-11.48,10.35S209.44,28.24,209.44,22s4.06-10.36,11.48-10.36S232.4,15.64,232.4,22ZM226,22c0-3.79-2-5.75-5-5.75s-5,2-5,5.75,2,5.73,5,5.73S226,25.72,226,22Z"/></svg>