<?xml version="1.0" encoding="utf-8"?>
<!-- Generator: Adobe Illustrator 26.1.0, SVG Export Plug-In . SVG Version: 6.00 Build 0)  -->
<svg version="1.1" id="Слой_1" xmlns="http://www.w3.org/2000/svg" xmlns:xlink="http://www.w3.org/1999/xlink" x="0px" y="0px"
	 viewBox="0 0 60 68" style="enable-background:new 0 0 60 68;" xml:space="preserve">
<style type="text/css">
	.st0{fill:#FBC800;}
	.st1{fill:#FFFFFF;}
	.st2{fill-rule:evenodd;clip-rule:evenodd;fill:#FBC800;}
	.st3{fill:none;}
	.st4{fill:#141515;}
	.st5{fill:none;stroke:#FFFFFF;stroke-width:0.25;stroke-miterlimit:10;}
</style>
<g>
	<g transform="translate(7 5)">
		
			<image style="overflow:visible;opacity:0.6;" width="82" height="88" xlink:href="A6E92C64.png"  transform="matrix(1 0 0 1 -15 -14)">
		</image>
		<g>
			<g>
				<g>
					<path id="ae96eeecd750ec2a83543f00c9bc789d__b_00000109743588759981505660000006651524523224580021_" class="st0" d="
						M23.5,51.5c0,0.3-0.2,0.5-0.5,0.5c-0.3,0-0.5-0.2-0.5-0.5c-0.1-3.2-1.8-5.2-4.8-6.1C7.5,43,0,33.9,0,23C0,10.3,10.3,0,23,0
						s23,10.3,23,23c0,10.9-7.5,20-17.7,22.4C25.3,46.3,23.7,48.4,23.5,51.5L23.5,51.5z"/>
				</g>
				<g>
					<path id="ae96eeecd750ec2a83543f00c9bc789d__b_00000083777727559879360060000011876891587354761141_" class="st0" d="
						M23.5,51.5c0,0.3-0.2,0.5-0.5,0.5c-0.3,0-0.5-0.2-0.5-0.5c-0.1-3.2-1.8-5.2-4.8-6.1C7.5,43,0,33.9,0,23C0,10.3,10.3,0,23,0
						s23,10.3,23,23c0,10.9-7.5,20-17.7,22.4C25.3,46.3,23.7,48.4,23.5,51.5L23.5,51.5z"/>
				</g>
			</g>
		</g>
	</g>
	<path class="st1" d="M30,68c-2.2,0-4-1.8-4-4s1.8-4,4-4s4,1.8,4,4S32.2,68,30,68z"/>
	<g>
		
			<image style="overflow:visible;opacity:0.6;" width="41" height="40" xlink:href="A6E92C63.png"  transform="matrix(1 0 0 1 13 48)">
		</image>
		<g>
			<path class="st2" d="M30,66c1.1,0,2-0.8,2-2s-0.8-2-2-2c0,0-0.1,0-0.1,0c-1.1,0-2,0.9-2,2C28.1,65.1,28.9,66,30,66z"/>
		</g>
	</g>
	<path class="st0" d="M37.8,40.4c-0.6-0.6-0.6-1.7,0-2.3c0.3-0.3,0.7-0.5,1.1-0.5c0.4,0,0.8,0.2,1.1,0.5c0.3,0.3,0.5,0.7,0.5,1.2
		c0,0.4-0.2,0.8-0.5,1.1C39.4,41.1,38.4,41.1,37.8,40.4C37.8,40.4,37.8,40.4,37.8,40.4z M44.4,23.4l0.7-0.7
		c-1.6-3.1-4.2-5.7-7.3-7.3L37.1,16C40.2,17.7,42.8,20.3,44.4,23.4L44.4,23.4z M31.8,32.5l5.4,5.4c0-0.1,0.1-0.1,0.2-0.2
		c0.1-0.1,0.1-0.1,0.2-0.2l-5.4-5.4L31.8,32.5z M32.6,31.6l5.5,5.5c0.3-0.1,0.6-0.2,0.8-0.2c1.3,0,2.3,1,2.3,2.3
		c0,0.6-0.2,1.2-0.7,1.7c-0.9,0.9-2.4,0.9-3.3,0c0,0,0,0,0,0c-0.4-0.4-0.7-1-0.7-1.6c0-0.3,0.1-0.6,0.2-0.8L31.3,33l-0.6,0.7
		l3.5,3.7c0.5,0.5,0.8,1.2,0.8,1.9c0,2.2,1.8,4.1,4,4.1c1.1,0,2.2-0.4,3-1.2c1.5-1.6,1.5-4.2-0.2-5.7C41,35.7,40,35.3,39,35.3l0,0
		c-0.7,0-1.4-0.3-1.9-0.8L33.3,31L32.6,31.6z M23,37.9L37,23.8l-0.3-0.3L22.6,37.5l0.2,0.2C22.9,37.8,22.9,37.8,23,37.9z M45.7,22.2
		l1-0.9c-1.6-3.2-4.2-5.7-7.3-7.4l-1,1C41.4,16.5,44,19,45.7,22.2z M21.2,37.7c-0.9,0-1.6,0.7-1.6,1.6c0,0.4,0.2,0.8,0.5,1.1
		c0.6,0.6,1.7,0.6,2.3,0c0,0,0,0,0,0c0.6-0.6,0.6-1.7,0-2.3C22,37.8,21.6,37.7,21.2,37.7L21.2,37.7z M23.3,38.5
		c0.1,0.3,0.2,0.6,0.2,0.8c0,1.3-1,2.3-2.3,2.3c-1.3,0-2.3-1-2.3-2.3s1-2.3,2.3-2.3c0.3,0,0.6,0.1,0.8,0.2L36.2,23l-0.4-0.4
		L23.2,34.5c-0.5,0.5-1.2,0.8-1.9,0.8h-0.1c-2.2,0-4,1.8-4,4c0,1,0.4,2,1.1,2.8c1.5,1.6,4.1,1.7,5.7,0.1c0.8-0.8,1.3-1.9,1.2-3
		c0-0.7,0.3-1.4,0.8-1.9l11.9-12.8l-0.4-0.3L23.3,38.5z M23.1,23.8l4.9,4.9l0.4-0.3l-4.9-4.9L23.1,23.8z M23.9,23l4.9,4.9l0.5-0.5
		l-5.1-4.8L23.9,23z M42.6,36c0.3,0.3,0.6,0.7,0.8,1.1l0.6-0.6c0.1-0.1,0.1-0.2,0-0.3c0,0,0,0,0,0l-1.8-1.8c0,0-0.1-0.1-0.2-0.1
		c-0.1,0-0.1,0-0.2,0.1l-0.6,0.6C41.8,35.2,42.2,35.5,42.6,36z M34.5,41.6L34,42.2c-0.1,0.1-0.1,0.2,0,0.3l1.8,1.8
		c0.1,0.1,0.2,0.1,0.3,0c0,0,0,0,0,0l0.6-0.5c-0.4-0.2-0.8-0.5-1.2-0.9C35.1,42.5,34.8,42.1,34.5,41.6z M22.5,24.3l-0.3,0.3l4.7,5.1
		l0.5-0.5L22.5,24.3L22.5,24.3z M18.9,34.9l-0.6-0.6c-0.1-0.1-0.2-0.1-0.3,0l-1.8,1.8c-0.1,0.1-0.1,0.2,0,0.3l0.6,0.6
		c0.2-0.4,0.5-0.7,0.8-1.1C17.9,35.5,18.4,35.2,18.9,34.9z M24.7,42.8c-0.4,0.4-0.8,0.7-1.2,0.9l0.6,0.5c0.1,0.1,0.2,0.1,0.3,0
		c0,0,0,0,0,0l1.8-1.8c0.1-0.1,0.1-0.2,0-0.3c0,0,0,0,0,0l-0.5-0.6C25.4,42.1,25.1,42.5,24.7,42.8z M21.8,14.8l-0.9-1
		c-3.2,1.6-5.8,4.2-7.4,7.4l1,1C16.1,19,18.7,16.5,21.8,14.8z M14.9,22.7l0.7,0.7c1.7-3.1,4.2-5.7,7.4-7.4l-0.7-0.7
		C19.1,17,16.6,19.5,14.9,22.7z M23.5,16.5l4.3,4.3l-0.9,0.9l-0.7-0.7c-0.2-0.2-0.5-0.4-0.9-0.4c-0.3,0-0.6,0.1-0.9,0.4l-3.8,3.8
		c-0.2,0.2-0.4,0.5-0.4,0.9c0,0.3,0.1,0.7,0.4,0.9l0.8,0.7l-0.9,0.9l-4.4-4.4C17.8,20.7,20.4,18.2,23.5,16.5L23.5,16.5z M20,22.3
		c0.5,0.5,1.4,0.5,1.9,0s0.5-1.4,0-1.9c-0.5-0.5-1.4-0.5-1.9,0c0,0,0,0,0,0C19.5,20.9,19.5,21.8,20,22.3L20,22.3z M32.2,20.9
		l4.3-4.3c3.2,1.6,5.7,4.2,7.4,7.4l-4.3,4.3l-0.9-1l0.7-0.7c0.2-0.2,0.4-0.5,0.4-0.9c0-0.3-0.1-0.6-0.4-0.9l-0.5-0.5l-2.6-2.7
		l-0.5-0.5c-0.5-0.5-1.3-0.5-1.7,0l-0.7,0.7L32.2,20.9z M38.2,22.3c0.5,0.5,1.4,0.5,1.9,0c0.5-0.5,0.5-1.4,0-1.9
		c-0.5-0.5-1.4-0.5-1.9,0.1C37.7,21,37.7,21.8,38.2,22.3L38.2,22.3z"/>
	<path class="st3" d="M35.2,16.5l-1,1c-1.4-0.4-2.7-0.9-4-1.5c-0.1-0.1-0.2-0.1-0.3,0c-1.3,0.7-2.7,1.2-4.1,1.5l0,0l-1-1
		c2.5-0.7,4.3-1.4,5.2-2.1C31,15.1,32.7,15.8,35.2,16.5z"/>
	<g>
		<path class="st4" d="M30.1,40.9c-0.1,0-0.1,0-0.2-0.1l-3.4-2.5c0.1-0.1,0.1-0.2,0.2-0.3l0.2-0.2l3.2,2.3l3.2-2.3l0.2,0.2
			c0.1,0.1,0.2,0.2,0.2,0.3l-3.5,2.5C30.2,40.8,30.2,40.9,30.1,40.9z M47.6,21.6l-5.4,5.4v0.7c0,2.3-0.6,4.5-1.6,6.5l-0.2,0.3
			l0.8-0.8c0.4-0.5,1.2-0.5,1.6,0c0,0,0,0,0,0l1.8,1.8c0.4,0.5,0.4,1.2,0,1.6L43.7,38c0.7,2.7-0.9,5.4-3.5,6.1
			c-0.4,0.1-0.8,0.2-1.2,0.2H39c-0.5,0-0.9-0.1-1.3-0.2l-0.8,0.8c-0.2,0.2-0.5,0.3-0.8,0.3c-0.3,0-0.6-0.1-0.8-0.3l-1.8-1.8
			c-0.2-0.2-0.3-0.5-0.3-0.8c0-0.3,0.1-0.6,0.3-0.8l0.8-0.8l-3.7,2.7c-0.1,0-0.2,0.1-0.3,0.1c-0.1,0-0.2,0-0.3-0.1L26,40.7
			c0.1-0.3,0.2-0.7,0.2-1l3.9,2.8l3.9-2.8l0,0c0-0.1,0-0.3,0-0.4c0-0.3-0.1-0.7-0.3-1c-0.1-0.1-0.1-0.2-0.2-0.3l-0.2-0.2l-3.2-3.4
			l-3.2,3.4L26.7,38c-0.1,0.1-0.2,0.2-0.2,0.3c-0.2,0.3-0.3,0.6-0.3,1c0,0.1,0,0.3,0,0.4c0,0.3-0.1,0.7-0.2,1l0.8,0.8
			c0.2,0.2,0.3,0.5,0.3,0.8c0,0.3-0.1,0.6-0.3,0.8L25,44.9c-0.2,0.2-0.5,0.3-0.8,0.3c-0.3,0-0.6-0.1-0.8-0.3l-0.8-0.8
			c-0.4,0.1-0.9,0.2-1.3,0.2h-0.1c-1.3,0-2.6-0.6-3.6-1.5c-1.2-1.3-1.7-3.1-1.2-4.8l-0.9-0.8c-0.2-0.2-0.3-0.5-0.3-0.8
			c0-0.3,0.1-0.6,0.3-0.8l1.8-1.8c0.5-0.4,1.2-0.4,1.6,0l0.8,0.8l-0.2-0.3c-1.1-2-1.6-4.2-1.6-6.5v-0.6l0,0l-5.5-5.5
			c-0.1-0.1-0.2-0.4-0.1-0.5c1.8-3.6,4.7-6.5,8.3-8.3c0.2-0.1,0.4-0.1,0.5,0.1l2.8,2.8l0,0c2.4-0.6,4.8-1.4,5.6-2.3
			c0.1-0.1,0.2-0.2,0.4-0.2c0.1,0,0.3,0.1,0.3,0.1c0.5,0.6,1.9,1.4,5.6,2.3l0,0l2.8-2.8c0.1-0.1,0.4-0.2,0.5-0.1
			c3.6,1.8,6.5,4.7,8.3,8.3C47.7,21.2,47.7,21.5,47.6,21.6L47.6,21.6z M24.9,16.5l0.9,0.9l0,0c1.4-0.4,2.8-0.9,4.1-1.5
			c0.1-0.1,0.2-0.1,0.3,0c1.3,0.7,2.6,1.2,4,1.5l0,0l1-1c-2.5-0.7-4.2-1.4-5.1-2.1C29.1,15.1,27.4,15.8,24.9,16.5z M31.3,20.5
			l2.5-2.5c-1.2-0.4-2.5-0.8-3.6-1.4c-1.2,0.6-2.4,1.1-3.7,1.4l2.5,2.5c0.2,0.2,0.2,0.5,0,0.7c0,0,0,0,0,0l-1.6,1.6
			c-0.2,0.2-0.5,0.2-0.7,0l-1.1-1.1c-0.1-0.1-0.1-0.1-0.2-0.1c-0.1,0-0.2,0-0.2,0.1l-0.2,0.2l5.1,4.8l5.1-4.8L35,21.7
			c-0.1-0.1-0.3-0.1-0.4,0c0,0,0,0,0,0l-1.1,1.1c-0.1,0.1-0.2,0.1-0.3,0.1c-0.1,0-0.2,0-0.3-0.1l-1.6-1.6
			C31.1,21,31.1,20.7,31.3,20.5C31.3,20.5,31.3,20.5,31.3,20.5z M22.4,27.6L21.1,29c0.2,1.4,0.6,2.8,1.2,4c0.1,0.2,0.3,0.4,0.4,0.7
			l0,0l3.5-3.3l-4.7-5l-0.2,0.2c-0.1,0.1-0.1,0.1-0.1,0.2c0,0.1,0,0.2,0.1,0.2l1.1,1.1C22.6,27.1,22.6,27.4,22.4,27.6
			C22.4,27.6,22.4,27.6,22.4,27.6z M27,29.7l0.5-0.5l-4.9-4.9h0l-0.3,0.3L27,29.7z M28,28.7l0.4-0.3l-4.9-4.9l-0.3,0.3L28,28.7z
			 M28.9,27.9l0.5-0.5l-5.1-4.8L23.9,23L28.9,27.9z M14.4,22.2c1.7-3.1,4.2-5.7,7.4-7.4l-0.9-1c-3.2,1.6-5.8,4.2-7.4,7.4L14.4,22.2z
			 M15.6,23.4c1.7-3.1,4.2-5.7,7.4-7.4l-0.7-0.7c-3.2,1.6-5.7,4.2-7.4,7.4L15.6,23.4z M20.5,28.2l0.9-0.9l-0.8-0.7
			c-0.2-0.2-0.4-0.5-0.4-0.9c0-0.3,0.1-0.6,0.4-0.9l3.8-3.8c0.2-0.2,0.5-0.4,0.9-0.4c0.3,0,0.6,0.1,0.9,0.4l0.7,0.7l0.9-0.9
			l-4.3-4.3c-3.2,1.6-5.7,4.2-7.4,7.4L20.5,28.2z M20.5,33.8c0.1,0.2,0.2,0.4,0.3,0.6h0.4c0.3,0,0.7-0.1,1-0.3
			c-0.2-0.3-0.3-0.5-0.5-0.8c-0.7-1.2-1.1-2.5-1.3-3.9c-0.1,0-0.2-0.1-0.3-0.1L18.9,28l0,0C19,30,19.5,32,20.5,33.8L20.5,33.8z
			 M16.8,37c0.2-0.4,0.5-0.7,0.8-1.1c0.4-0.4,0.8-0.8,1.4-1.1l-0.6-0.6c-0.1-0.1-0.2-0.1-0.3,0l-1.8,1.8c-0.1,0.1-0.1,0.2,0,0.3
			L16.8,37z M25.6,41.6c-0.5,0.9-1.2,1.7-2.1,2.1l0.6,0.5c0.1,0.1,0.2,0.1,0.3,0c0,0,0,0,0,0l1.8-1.8c0.1-0.1,0.1-0.2,0-0.3
			c0,0,0,0,0,0L25.6,41.6z M37.9,24.7l-0.4-0.4L23.3,38.5c0.1,0.3,0.2,0.6,0.2,0.8c0,1.3-1,2.3-2.3,2.3c-1.3,0-2.3-1-2.3-2.3
			s1-2.3,2.3-2.3c0.3,0,0.6,0.1,0.8,0.2L36.2,23l-0.4-0.4L23.2,34.5c-0.5,0.5-1.2,0.8-1.9,0.8h-0.1c-2.2,0-4,1.8-4,4
			c0,1,0.4,2,1.1,2.8c1.5,1.6,4.1,1.7,5.7,0.1c0.8-0.8,1.3-1.9,1.2-3c0-0.7,0.3-1.4,0.8-1.9L37.9,24.7z M22.8,37.7
			c0.1,0.1,0.1,0.1,0.2,0.2l14.1-14.1l-0.3-0.3L22.6,37.5L22.8,37.7z M22.3,38.2c-0.6-0.6-1.7-0.6-2.3,0c-0.6,0.6-0.6,1.7,0,2.3
			c0.6,0.6,1.7,0.6,2.3,0c0,0,0,0,0,0C23,39.9,23,38.9,22.3,38.2C22.3,38.2,22.3,38.2,22.3,38.2z M37.7,27l1.1-1.1
			c0.1-0.1,0.1-0.1,0.1-0.2c0-0.1,0-0.2-0.1-0.2l-0.2-0.2l-4.7,5l3.5,3.3l0,0c0.1-0.2,0.3-0.4,0.4-0.7c0.7-1.2,1.1-2.6,1.3-4l0,0
			l0,0l-1.3-1.3C37.5,27.4,37.5,27.1,37.7,27C37.7,27,37.7,27,37.7,27L37.7,27z M37.5,37.6l-5.4-5.4l-0.3,0.4l5.4,5.4
			c0-0.1,0.1-0.1,0.2-0.2C37.4,37.7,37.4,37.6,37.5,37.6L37.5,37.6z M37.3,39.4c0,0.9,0.8,1.6,1.7,1.5c0.4,0,0.8-0.2,1-0.5
			c0.3-0.3,0.5-0.7,0.5-1.1c0-0.4-0.2-0.8-0.5-1.2c-0.3-0.3-0.7-0.5-1.1-0.5C38.1,37.7,37.3,38.4,37.3,39.4
			C37.3,39.3,37.3,39.3,37.3,39.4L37.3,39.4z M36.7,43.8c-0.4-0.2-0.8-0.6-1.2-0.9c-0.4-0.4-0.7-0.8-0.9-1.2L34,42.2
			c-0.1,0.1-0.1,0.2,0,0.3l1.8,1.8c0.1,0.1,0.2,0.1,0.3,0c0,0,0,0,0,0L36.7,43.8z M41.3,34.9c0.5,0.3,1,0.6,1.4,1.1
			c0.3,0.3,0.6,0.7,0.8,1.1l0.6-0.6c0.1-0.1,0.1-0.2,0-0.3c0,0,0,0,0,0l-1.8-1.8c0,0-0.1-0.1-0.2-0.1c-0.1,0-0.1,0-0.2,0.1
			L41.3,34.9z M39,35.3L39,35.3c-0.7,0-1.4-0.3-1.9-0.8L33.3,31l-0.6,0.7l5.5,5.5c0.3-0.1,0.6-0.2,0.8-0.2c1.3,0,2.3,1,2.3,2.3
			c0,0.6-0.2,1.2-0.7,1.7c-0.9,0.9-2.4,0.9-3.3,0c0,0,0,0,0,0c-0.4-0.4-0.7-1-0.7-1.6c0-0.3,0.1-0.6,0.2-0.8L31.4,33l-0.6,0.7
			l3.4,3.7c0.5,0.5,0.8,1.2,0.8,1.9c0,2.2,1.8,4.1,4,4.1c1.1,0,2.2-0.4,3-1.2c1.5-1.6,1.5-4.2-0.2-5.7C41,35.7,40,35.3,39,35.3
			L39,35.3z M41.2,28L41.2,28L40,29.2c-0.1,0.1-0.2,0.1-0.3,0.1l0,0c-0.2,1.4-0.6,2.7-1.3,3.9c-0.1,0.3-0.3,0.5-0.5,0.8
			c0.3,0.2,0.6,0.3,0.9,0.3H39h0.4l0,0c0.1-0.2,0.2-0.4,0.3-0.6C40.6,32,41.1,30,41.2,28L41.2,28L41.2,28z M44,23.9
			c-1.6-3.2-4.2-5.7-7.4-7.4l-4.3,4.3l0.9,0.9l0.8-0.7c0.5-0.5,1.3-0.5,1.7,0l0.5,0.5l2.7,2.7l0.5,0.5c0.2,0.2,0.4,0.5,0.4,0.9
			c0,0.3-0.1,0.7-0.4,0.9l-0.7,0.7l0.9,0.9L44,23.9z M45.2,22.7c-1.6-3.2-4.2-5.8-7.4-7.4L37.1,16c3.1,1.7,5.7,4.2,7.4,7.4
			L45.2,22.7z M46.7,21.2c-1.6-3.2-4.2-5.7-7.3-7.4l-1,1c3.1,1.7,5.7,4.2,7.4,7.4L46.7,21.2z M21.9,22.3c0.5-0.5,0.5-1.4,0-1.9
			c-0.5-0.5-1.4-0.5-1.9,0c-0.5,0.5-0.5,1.4,0.1,1.9C20.6,22.8,21.4,22.8,21.9,22.3L21.9,22.3z M38.2,20.4c-0.5,0.5-0.5,1.4,0,1.9
			c0.5,0.5,1.4,0.5,1.9,0c0.5-0.5,0.5-1.4,0-1.9c0,0,0,0,0,0C39.6,19.9,38.7,19.9,38.2,20.4L38.2,20.4z"/>
		<path class="st5" d="M30.1,40.9c-0.1,0-0.1,0-0.2-0.1l-3.4-2.5c0.1-0.1,0.1-0.2,0.2-0.3l0.2-0.2l3.2,2.3l3.2-2.3l0.2,0.2
			c0.1,0.1,0.2,0.2,0.2,0.3l-3.5,2.5C30.2,40.8,30.2,40.9,30.1,40.9z M47.6,21.6l-5.4,5.4v0.7c0,2.3-0.6,4.5-1.6,6.5l-0.2,0.3
			l0.8-0.8c0.4-0.5,1.2-0.5,1.6,0c0,0,0,0,0,0l1.8,1.8c0.4,0.5,0.4,1.2,0,1.6L43.7,38c0.7,2.7-0.9,5.4-3.5,6.1
			c-0.4,0.1-0.8,0.2-1.2,0.2H39c-0.5,0-0.9-0.1-1.3-0.2l-0.8,0.8c-0.2,0.2-0.5,0.3-0.8,0.3c-0.3,0-0.6-0.1-0.8-0.3l-1.8-1.8
			c-0.2-0.2-0.3-0.5-0.3-0.8c0-0.3,0.1-0.6,0.3-0.8l0.8-0.8l-3.7,2.7c-0.1,0-0.2,0.1-0.3,0.1c-0.1,0-0.2,0-0.3-0.1L26,40.7
			c0.1-0.3,0.2-0.7,0.2-1l3.9,2.8l3.9-2.8l0,0c0-0.1,0-0.3,0-0.4c0-0.3-0.1-0.7-0.3-1c-0.1-0.1-0.1-0.2-0.2-0.3l-0.2-0.2l-3.2-3.4
			l-3.2,3.4L26.7,38c-0.1,0.1-0.2,0.2-0.2,0.3c-0.2,0.3-0.3,0.6-0.3,1c0,0.1,0,0.3,0,0.4c0,0.3-0.1,0.7-0.2,1l0.8,0.8
			c0.2,0.2,0.3,0.5,0.3,0.8c0,0.3-0.1,0.6-0.3,0.8L25,44.9c-0.2,0.2-0.5,0.3-0.8,0.3c-0.3,0-0.6-0.1-0.8-0.3l-0.8-0.8
			c-0.4,0.1-0.9,0.2-1.3,0.2h-0.1c-1.3,0-2.6-0.6-3.6-1.5c-1.2-1.3-1.7-3.1-1.2-4.8l-0.9-0.8c-0.2-0.2-0.3-0.5-0.3-0.8
			c0-0.3,0.1-0.6,0.3-0.8l1.8-1.8c0.5-0.4,1.2-0.4,1.6,0l0.8,0.8l-0.2-0.3c-1.1-2-1.6-4.2-1.6-6.5v-0.6l0,0l-5.5-5.5
			c-0.1-0.1-0.2-0.4-0.1-0.5c1.8-3.6,4.7-6.5,8.3-8.3c0.2-0.1,0.4-0.1,0.5,0.1l2.8,2.8l0,0c2.4-0.6,4.8-1.4,5.6-2.3
			c0.1-0.1,0.2-0.2,0.4-0.2c0.1,0,0.3,0.1,0.3,0.1c0.5,0.6,1.9,1.4,5.6,2.3l0,0l2.8-2.8c0.1-0.1,0.4-0.2,0.5-0.1
			c3.6,1.8,6.5,4.7,8.3,8.3C47.7,21.2,47.7,21.5,47.6,21.6L47.6,21.6z M24.9,16.5l0.9,0.9l0,0c1.4-0.4,2.8-0.9,4.1-1.5
			c0.1-0.1,0.2-0.1,0.3,0c1.3,0.7,2.6,1.2,4,1.5l0,0l1-1c-2.5-0.7-4.2-1.4-5.1-2.1C29.1,15.1,27.4,15.8,24.9,16.5z M31.3,20.5
			l2.5-2.5c-1.2-0.4-2.5-0.8-3.6-1.4c-1.2,0.6-2.4,1.1-3.7,1.4l2.5,2.5c0.2,0.2,0.2,0.5,0,0.7c0,0,0,0,0,0l-1.6,1.6
			c-0.2,0.2-0.5,0.2-0.7,0l-1.1-1.1c-0.1-0.1-0.1-0.1-0.2-0.1c-0.1,0-0.2,0-0.2,0.1l-0.2,0.2l5.1,4.8l5.1-4.8L35,21.7
			c-0.1-0.1-0.3-0.1-0.4,0c0,0,0,0,0,0l-1.1,1.1c-0.1,0.1-0.2,0.1-0.3,0.1c-0.1,0-0.2,0-0.3-0.1l-1.6-1.6
			C31.1,21,31.1,20.7,31.3,20.5C31.3,20.5,31.3,20.5,31.3,20.5z M22.4,27.6L21.1,29c0.2,1.4,0.6,2.8,1.2,4c0.1,0.2,0.3,0.4,0.4,0.7
			l0,0l3.5-3.3l-4.7-5l-0.2,0.2c-0.1,0.1-0.1,0.1-0.1,0.2c0,0.1,0,0.2,0.1,0.2l1.1,1.1C22.6,27.1,22.6,27.4,22.4,27.6
			C22.4,27.6,22.4,27.6,22.4,27.6z M27,29.7l0.5-0.5l-4.9-4.9h0l-0.3,0.3L27,29.7z M28,28.7l0.4-0.3l-4.9-4.9l-0.3,0.3L28,28.7z
			 M28.9,27.9l0.5-0.5l-5.1-4.8L23.9,23L28.9,27.9z M14.4,22.2c1.7-3.1,4.2-5.7,7.4-7.4l-0.9-1c-3.2,1.6-5.8,4.2-7.4,7.4L14.4,22.2z
			 M15.6,23.4c1.7-3.1,4.2-5.7,7.4-7.4l-0.7-0.7c-3.2,1.6-5.7,4.2-7.4,7.4L15.6,23.4z M20.5,28.2l0.9-0.9l-0.8-0.7
			c-0.2-0.2-0.4-0.5-0.4-0.9c0-0.3,0.1-0.6,0.4-0.9l3.8-3.8c0.2-0.2,0.5-0.4,0.9-0.4c0.3,0,0.6,0.1,0.9,0.4l0.7,0.7l0.9-0.9
			l-4.3-4.3c-3.2,1.6-5.7,4.2-7.4,7.4L20.5,28.2z M20.5,33.8c0.1,0.2,0.2,0.4,0.3,0.6h0.4c0.3,0,0.7-0.1,1-0.3
			c-0.2-0.3-0.3-0.5-0.5-0.8c-0.7-1.2-1.1-2.5-1.3-3.9c-0.1,0-0.2-0.1-0.3-0.1L18.9,28l0,0C19,30,19.5,32,20.5,33.8L20.5,33.8z
			 M16.8,37c0.2-0.4,0.5-0.7,0.8-1.1c0.4-0.4,0.8-0.8,1.4-1.1l-0.6-0.6c-0.1-0.1-0.2-0.1-0.3,0l-1.8,1.8c-0.1,0.1-0.1,0.2,0,0.3
			L16.8,37z M25.6,41.6c-0.5,0.9-1.2,1.7-2.1,2.1l0.6,0.5c0.1,0.1,0.2,0.1,0.3,0c0,0,0,0,0,0l1.8-1.8c0.1-0.1,0.1-0.2,0-0.3
			c0,0,0,0,0,0L25.6,41.6z M37.9,24.7l-0.4-0.4L23.3,38.5c0.1,0.3,0.2,0.6,0.2,0.8c0,1.3-1,2.3-2.3,2.3c-1.3,0-2.3-1-2.3-2.3
			s1-2.3,2.3-2.3c0.3,0,0.6,0.1,0.8,0.2L36.2,23l-0.4-0.4L23.2,34.5c-0.5,0.5-1.2,0.8-1.9,0.8h-0.1c-2.2,0-4,1.8-4,4
			c0,1,0.4,2,1.1,2.8c1.5,1.6,4.1,1.7,5.7,0.1c0.8-0.8,1.3-1.9,1.2-3c0-0.7,0.3-1.4,0.8-1.9L37.9,24.7z M22.8,37.7
			c0.1,0.1,0.1,0.1,0.2,0.2l14.1-14.1l-0.3-0.3L22.6,37.5L22.8,37.7z M22.3,38.2c-0.6-0.6-1.7-0.6-2.3,0c-0.6,0.6-0.6,1.7,0,2.3
			c0.6,0.6,1.7,0.6,2.3,0c0,0,0,0,0,0C23,39.9,23,38.9,22.3,38.2C22.3,38.2,22.3,38.2,22.3,38.2z M37.7,27l1.1-1.1
			c0.1-0.1,0.1-0.1,0.1-0.2c0-0.1,0-0.2-0.1-0.2l-0.2-0.2l-4.7,5l3.5,3.3l0,0c0.1-0.2,0.3-0.4,0.4-0.7c0.7-1.2,1.1-2.6,1.3-4l0,0
			l0,0l-1.3-1.3C37.5,27.4,37.5,27.1,37.7,27C37.7,27,37.7,27,37.7,27L37.7,27z M37.5,37.6l-5.4-5.4l-0.3,0.4l5.4,5.4
			c0-0.1,0.1-0.1,0.2-0.2C37.4,37.7,37.4,37.6,37.5,37.6L37.5,37.6z M37.3,39.4c0,0.9,0.8,1.6,1.7,1.5c0.4,0,0.8-0.2,1-0.5
			c0.3-0.3,0.5-0.7,0.5-1.1c0-0.4-0.2-0.8-0.5-1.2c-0.3-0.3-0.7-0.5-1.1-0.5C38.1,37.7,37.3,38.4,37.3,39.4
			C37.3,39.3,37.3,39.3,37.3,39.4L37.3,39.4z M36.7,43.8c-0.4-0.2-0.8-0.6-1.2-0.9c-0.4-0.4-0.7-0.8-0.9-1.2L34,42.2
			c-0.1,0.1-0.1,0.2,0,0.3l1.8,1.8c0.1,0.1,0.2,0.1,0.3,0c0,0,0,0,0,0L36.7,43.8z M41.3,34.9c0.5,0.3,1,0.6,1.4,1.1
			c0.3,0.3,0.6,0.7,0.8,1.1l0.6-0.6c0.1-0.1,0.1-0.2,0-0.3c0,0,0,0,0,0l-1.8-1.8c0,0-0.1-0.1-0.2-0.1c-0.1,0-0.1,0-0.2,0.1
			L41.3,34.9z M39,35.3L39,35.3c-0.7,0-1.4-0.3-1.9-0.8L33.3,31l-0.6,0.7l5.5,5.5c0.3-0.1,0.6-0.2,0.8-0.2c1.3,0,2.3,1,2.3,2.3
			c0,0.6-0.2,1.2-0.7,1.7c-0.9,0.9-2.4,0.9-3.3,0c0,0,0,0,0,0c-0.4-0.4-0.7-1-0.7-1.6c0-0.3,0.1-0.6,0.2-0.8L31.4,33l-0.6,0.7
			l3.4,3.7c0.5,0.5,0.8,1.2,0.8,1.9c0,2.2,1.8,4.1,4,4.1c1.1,0,2.2-0.4,3-1.2c1.5-1.6,1.5-4.2-0.2-5.7C41,35.7,40,35.3,39,35.3
			L39,35.3z M41.2,28L41.2,28L40,29.2c-0.1,0.1-0.2,0.1-0.3,0.1l0,0c-0.2,1.4-0.6,2.7-1.3,3.9c-0.1,0.3-0.3,0.5-0.5,0.8
			c0.3,0.2,0.6,0.3,0.9,0.3H39h0.4l0,0c0.1-0.2,0.2-0.4,0.3-0.6C40.6,32,41.1,30,41.2,28L41.2,28L41.2,28z M44,23.9
			c-1.6-3.2-4.2-5.7-7.4-7.4l-4.3,4.3l0.9,0.9l0.8-0.7c0.5-0.5,1.3-0.5,1.7,0l0.5,0.5l2.7,2.7l0.5,0.5c0.2,0.2,0.4,0.5,0.4,0.9
			c0,0.3-0.1,0.7-0.4,0.9l-0.7,0.7l0.9,0.9L44,23.9z M45.2,22.7c-1.6-3.2-4.2-5.8-7.4-7.4L37.1,16c3.1,1.7,5.7,4.2,7.4,7.4
			L45.2,22.7z M46.7,21.2c-1.6-3.2-4.2-5.7-7.3-7.4l-1,1c3.1,1.7,5.7,4.2,7.4,7.4L46.7,21.2z M21.9,22.3c0.5-0.5,0.5-1.4,0-1.9
			c-0.5-0.5-1.4-0.5-1.9,0c-0.5,0.5-0.5,1.4,0.1,1.9C20.6,22.8,21.4,22.8,21.9,22.3L21.9,22.3z M38.2,20.4c-0.5,0.5-0.5,1.4,0,1.9
			c0.5,0.5,1.4,0.5,1.9,0c0.5-0.5,0.5-1.4,0-1.9c0,0,0,0,0,0C39.6,19.9,38.7,19.9,38.2,20.4L38.2,20.4z"/>
	</g>
</g>
</svg>
