<svg width="69" height="69" viewBox="0 0 69 69" fill="none" xmlns="http://www.w3.org/2000/svg">
<g clip-path="url(#clip0_4_171)">
<path d="M16.4996 18.2677H21.5798V27.5137H10.7209L13.6448 20.1997C14.1105 19.0353 15.2404 18.2677 16.4996 18.2677ZM26.2028 27.5137V18.2677H34.0256C34.9571 18.2677 35.8455 18.6903 36.432 19.4235L42.9008 27.5137H26.2028ZM50.8789 27.6086L41.2448 15.5681C39.4939 13.3687 36.8374 12.1008 34.017 12.1008H16.4996C12.7133 12.1008 9.315 14.4037 7.91775 17.9055L3.90713 27.9363C1.6215 28.842 0 31.0672 0 33.6806V44.4705C0 46.1782 1.38 47.5496 3.07913 47.5496H6.28763C7.02075 51.9225 10.8244 55.2517 15.4129 55.2517C20.0014 55.2517 23.805 51.9225 24.5381 47.5496H37.1134C37.8465 51.9225 41.6501 55.2517 46.2386 55.2517C50.8271 55.2517 54.6308 51.9225 55.3639 47.5496H58.5638C60.2715 47.5496 61.6429 46.1696 61.6429 44.4705V39.8475C61.6429 33.5598 56.9423 28.3848 50.8789 27.6086ZM50.5943 47.5496C49.956 49.3436 48.2483 50.6287 46.23 50.6287C44.2118 50.6287 42.504 49.335 41.8658 47.5496C41.6933 47.0666 41.607 46.5491 41.607 46.0057C41.607 43.4527 43.677 41.3827 46.23 41.3827C48.783 41.3827 50.853 43.4527 50.853 46.0057C50.853 46.5491 50.7581 47.0666 50.5943 47.5496ZM15.4129 50.6287C13.4033 50.6287 11.6869 49.335 11.0486 47.5496C10.8761 47.0666 10.7899 46.5491 10.7899 46.0057C10.7899 43.4527 12.8599 41.3827 15.4129 41.3827C17.9659 41.3827 20.0359 43.4527 20.0359 46.0057C20.0359 46.5491 19.941 47.0666 19.7771 47.5496C19.1389 49.3436 17.4225 50.6287 15.4129 50.6287Z" fill="#FBC800"/>
<path d="M64.7996 26.3666H64.6703C64.5323 26.3666 64.4201 26.2545 64.4201 26.1165C64.4201 25.6421 64.3339 25.1677 64.1441 24.7278C63.7301 23.8222 63.0056 23.0977 62.1 22.6837C61.6601 22.5026 61.1858 22.4077 60.7114 22.4077C60.5734 22.4077 60.4613 22.2956 60.4613 22.1576V22.0282C60.4613 21.8902 60.5734 21.7781 60.7114 21.7781C61.1858 21.7781 61.6601 21.6918 62.1 21.5021C62.5485 21.3037 62.9625 21.0191 63.3075 20.6655C63.6611 20.3205 63.9458 19.9065 64.1441 19.458C64.3339 19.0181 64.4201 18.5523 64.4201 18.0693C64.4201 17.9313 64.5323 17.8192 64.6703 17.8192H64.7996C64.9376 17.8192 65.0498 17.9313 65.0498 18.0693C65.0498 18.5437 65.136 19.0181 65.3258 19.458C65.5241 19.9065 65.8088 20.3205 66.1624 20.6655C66.5074 21.0191 66.9128 21.3037 67.3699 21.5021C67.8098 21.6918 68.2841 21.7867 68.7585 21.7781C68.8965 21.7781 69.0086 21.8902 69.0086 22.0282V22.1576C69.0086 22.2956 68.8965 22.4077 68.7585 22.4077C68.2841 22.4077 67.8098 22.494 67.3699 22.6837C66.4643 23.0977 65.7398 23.8222 65.3258 24.7278C65.1446 25.1677 65.0498 25.6421 65.0498 26.1165C65.0498 26.2545 64.9376 26.3666 64.7996 26.3666ZM55.4329 22.5457H55.2776C55.1396 22.5457 55.0275 22.4336 55.0275 22.2956C55.0361 21.7177 54.9154 21.1485 54.6998 20.6223C54.4583 20.079 54.1219 19.5873 53.6906 19.1733C53.2766 18.7507 52.785 18.4057 52.2416 18.1642C51.7155 17.94 51.1463 17.8278 50.5684 17.8365C50.4304 17.8365 50.3183 17.7243 50.3183 17.5863V17.4311C50.3183 17.2931 50.4304 17.181 50.5684 17.181C51.1463 17.1896 51.7155 17.0688 52.2416 16.8446C52.785 16.6031 53.2766 16.2667 53.6906 15.8355C54.1133 15.4215 54.4583 14.9212 54.6998 14.3778C54.924 13.8517 55.0361 13.2825 55.0361 12.7046C55.0361 12.5666 55.1483 12.4545 55.2863 12.4545H55.4415C55.5795 12.4545 55.6916 12.5666 55.6916 12.7046C55.683 13.2825 55.8038 13.8517 56.028 14.3778C56.2695 14.9212 56.6059 15.4128 57.0285 15.8268C57.4425 16.2495 57.9341 16.5945 58.4775 16.836C59.0036 17.0602 59.5729 17.1723 60.1508 17.1723C60.2888 17.1723 60.4009 17.2845 60.4009 17.4225V17.5777C60.4009 17.7157 60.2888 17.8278 60.1508 17.8278C59.5729 17.8192 59.0036 17.94 58.4775 18.1556C57.3908 18.6472 56.5196 19.527 56.028 20.6137C55.8038 21.1398 55.6916 21.7091 55.6916 22.287C55.683 22.4336 55.5709 22.5457 55.4329 22.5457ZM55.1569 20.4326C55.2345 20.6137 55.3035 20.8035 55.3553 21.0018C55.407 20.8121 55.476 20.6223 55.5536 20.4326C56.097 19.2251 57.063 18.2591 58.2705 17.7071C58.4516 17.6295 58.6414 17.5605 58.8398 17.5087C58.65 17.457 58.4603 17.388 58.2705 17.3103C57.6668 17.043 57.1234 16.6721 56.6663 16.1977C56.1919 15.7406 55.821 15.1886 55.5536 14.5935C55.476 14.4037 55.407 14.214 55.3553 14.0242C55.3035 14.214 55.2345 14.4037 55.1569 14.5935C54.8981 15.1972 54.5186 15.7406 54.0443 16.2063C53.5871 16.6807 53.0351 17.0516 52.44 17.319C52.2503 17.3966 52.0605 17.4656 51.8708 17.5173C52.0691 17.5691 52.2589 17.6381 52.44 17.7157C53.0438 17.9745 53.5871 18.354 54.0443 18.8283C54.51 19.2855 54.8895 19.8288 55.1569 20.4326ZM57.3908 28.9972H57.3131C57.1751 28.9972 57.063 28.8851 57.063 28.7471C57.063 28.4625 57.0113 28.1865 56.8991 27.9277C56.6576 27.3843 56.2264 26.9531 55.683 26.7116C55.4243 26.5995 55.1396 26.5477 54.8636 26.5477C54.7343 26.5477 54.6221 26.4356 54.6135 26.3062V26.22C54.6135 26.082 54.7256 25.9698 54.8636 25.9698C55.1483 25.9698 55.4243 25.9181 55.683 25.806C56.2264 25.5645 56.6576 25.1332 56.8991 24.5898C57.0113 24.3311 57.063 24.0551 57.063 23.7705C57.063 23.6325 57.1751 23.5203 57.3131 23.5203H57.3908C57.5288 23.5203 57.6409 23.6325 57.6409 23.7705C57.6409 24.0551 57.6926 24.3311 57.8048 24.5898C58.0463 25.1332 58.4775 25.5645 59.0209 25.806C59.2796 25.9181 59.5556 25.9698 59.8403 25.9698C59.9783 25.9698 60.0904 26.082 60.0904 26.22V26.2976C60.0904 26.4356 59.9783 26.5477 59.8403 26.5477C59.5556 26.5477 59.2796 26.5995 59.0209 26.7116C58.7535 26.8323 58.5034 26.9962 58.2964 27.2118L58.2878 27.2205C58.0808 27.4188 57.9169 27.6603 57.8048 27.9191C57.6926 28.1778 57.6409 28.4625 57.6409 28.7385C57.6409 28.8937 57.5288 29.0058 57.3908 28.9972C57.3908 29.0058 57.3908 29.0058 57.3908 28.9972ZM56.7525 26.8668C57.0026 27.1083 57.2096 27.4016 57.3476 27.7207C57.4856 27.4016 57.684 27.117 57.9341 26.8755L57.9428 26.8582C58.1929 26.6081 58.4775 26.4011 58.8053 26.2631C58.1584 25.9698 57.6409 25.4523 57.3476 24.8055C57.201 25.1246 57.0026 25.4178 56.7525 25.6593C56.5024 25.9095 56.2178 26.1165 55.89 26.2545C56.2178 26.4097 56.511 26.6081 56.7525 26.8668ZM64.6099 24.5381C64.6616 24.6502 64.7048 24.771 64.7393 24.8917C64.7738 24.771 64.8255 24.6588 64.8686 24.5381C65.3258 23.5117 66.1451 22.6923 67.1715 22.2352C67.2923 22.1835 67.4044 22.1403 67.5251 22.1058C67.4044 22.0713 67.2836 22.0282 67.1715 21.9765C66.6626 21.7522 66.1969 21.4331 65.8001 21.0363C65.4034 20.6482 65.0843 20.1825 64.86 19.665C64.8083 19.5442 64.7651 19.4321 64.7306 19.3113C64.6961 19.4321 64.6444 19.5442 64.6013 19.665C64.377 20.1738 64.0579 20.6396 63.6611 21.0363C63.273 21.4331 62.8073 21.7522 62.2898 21.9765C62.169 22.0282 62.0569 22.0713 61.9361 22.1058C62.0569 22.1403 62.169 22.1921 62.2898 22.2352C63.3248 22.6923 64.1441 23.5117 64.6099 24.5381Z" fill="#FBC800"/>
</g>
<defs>
<clipPath id="clip0_4_171">
<rect width="69" height="69" fill="white"/>
</clipPath>
</defs>
</svg>
