<svg width="38" height="50" viewBox="0 0 38 50" fill="none" xmlns="http://www.w3.org/2000/svg">
<g clip-path="url(#clip0_4_45)">
<path fill-rule="evenodd" clip-rule="evenodd" d="M13.1881 49.2438L9.64912 45.7048H7.22928C6.38233 45.7048 5.68663 45.0091 5.68663 44.1621V41.5305H4.20448V44.6158C4.20448 45.2813 3.66001 45.8258 2.99455 45.7955H1.20992C0.544465 45.7955 0 45.251 0 44.6158V34.1803C0 33.5148 0.544465 32.9703 1.20992 32.9703H3.0248C3.69026 32.9703 4.23472 33.5148 4.23472 34.1803V37.2656H5.71688V34.4223C5.71688 33.5753 6.41258 32.8796 7.25953 32.8796H9.80036L13.4604 29.0079C13.9141 28.6449 14.5191 28.4634 15.0938 28.5239H30.127C30.5808 28.5541 31.0042 28.7659 31.2765 29.1591C31.5184 29.5221 31.4882 29.7338 31.4882 30.1573V37.2656H32.9704V34.1803C32.9704 33.5148 33.5148 32.9703 34.1803 32.9703H35.9952C36.6606 32.9703 37.1748 33.5148 37.1748 34.1803V44.6158C37.1748 45.2813 36.6304 45.7955 35.9952 45.7955H34.1803C33.5148 45.7955 32.9704 45.251 32.9704 44.6158V41.5305H31.4882V41.8028C31.4882 42.6195 31.5184 43.1337 30.974 43.7991C30.8832 43.9201 30.7622 44.0411 30.6413 44.1621L25.2571 49.4555C24.9244 49.7883 24.5009 49.9395 24.0472 49.9395H14.8518C14.2166 49.9697 13.6116 49.7278 13.1881 49.2438ZM15.729 21.3551H26.1645C26.83 21.3551 27.3745 21.8996 27.3745 22.565V24.3799C27.3745 25.0454 26.83 25.5898 26.1645 25.5898H23.0792V27.1022H18.8143V25.5898H15.729C15.0635 25.5898 14.5191 25.0454 14.5191 24.3799V22.565C14.5191 21.8996 15.0635 21.3551 15.729 21.3551ZM18.7235 33.7568C18.8143 33.6661 18.9353 33.5753 19.0563 33.5753C19.1773 33.5753 19.3285 33.6056 19.4192 33.6963L19.9637 34.1803C20.0847 34.0895 20.2359 33.9685 20.3872 33.908C20.5384 33.8173 20.6897 33.7568 20.8409 33.6963L20.7804 32.8796C20.7501 32.6074 20.9619 32.3956 21.2039 32.3654L22.2021 32.2746C22.323 32.2746 22.444 32.3049 22.565 32.3956C22.6558 32.4864 22.7163 32.6074 22.7465 32.7284L22.807 33.4543C23.1397 33.5148 23.4725 33.6056 23.775 33.7265L24.2892 33.0913C24.3799 33.0006 24.4707 32.9401 24.6219 32.9099C24.7429 32.9099 24.8639 32.9401 24.9849 33.0308L25.7411 33.6661C25.9528 33.8173 25.9831 34.1198 25.8016 34.3315L25.3176 34.9062C25.4083 35.0272 25.5293 35.1785 25.5898 35.3297C25.6806 35.4809 25.7411 35.6322 25.8016 35.7834L26.6183 35.7229C26.7393 35.7229 26.8603 35.7532 26.9812 35.8439C27.072 35.9347 27.1325 36.0556 27.1627 36.1766L27.2535 37.1748C27.2837 37.4471 27.072 37.689 26.83 37.7193L26.1041 37.7798C26.0738 37.9613 26.0436 38.1125 26.0133 38.294C25.9528 38.4452 25.9226 38.6267 25.8318 38.778L26.4368 39.2922C26.5275 39.3829 26.588 39.4737 26.6183 39.6249C26.6183 39.7459 26.588 39.8669 26.4973 39.9879L25.8621 40.7743C25.7713 40.8651 25.6503 40.9256 25.5293 40.9256C25.4083 40.9256 25.2874 40.8953 25.1664 40.8348L24.5917 40.3509C24.4707 40.4416 24.3194 40.5324 24.1682 40.6231C24.0169 40.7138 23.8657 40.7743 23.7145 40.8651L23.775 41.6515C23.8052 41.9238 23.6237 42.1355 23.3515 42.1657L22.3533 42.2565C22.2323 42.2565 22.1113 42.2262 21.9903 42.1355C21.8996 42.0448 21.8088 41.9238 21.8088 41.8028L21.7483 41.0768C21.5668 41.0466 21.4156 41.0163 21.2341 40.9558C21.0829 40.8953 20.9014 40.8651 20.7501 40.7743L20.2359 41.3793C20.1452 41.47 20.0544 41.5608 19.9032 41.5608C19.7822 41.5608 19.6612 41.5305 19.5402 41.4398L18.7538 40.8046C18.663 40.7138 18.6025 40.5929 18.6025 40.4719C18.6025 40.3509 18.6328 40.2299 18.7235 40.1391L19.2075 39.5644C19.1168 39.4434 19.026 39.2922 18.9353 39.1409C18.8445 38.9897 18.784 38.8385 18.6933 38.6872L17.9068 38.7477C17.7858 38.7477 17.6648 38.7175 17.5439 38.6267C17.4531 38.536 17.3624 38.415 17.3624 38.294L17.2716 37.2958C17.2414 37.0236 17.4531 36.8118 17.6951 36.7816L18.4211 36.7211C18.4513 36.5396 18.4815 36.3884 18.542 36.2371C18.5723 36.0859 18.6328 35.9044 18.7235 35.7532L18.1186 35.239C18.0278 35.1482 17.9673 35.0575 17.9371 34.9062C17.9371 34.7852 17.9673 34.634 18.0581 34.5432L18.7235 33.7568ZM13.6419 39.6552C13.7024 39.5947 13.7629 39.5947 13.8536 39.5947C13.9141 39.5947 14.0048 39.6249 14.0351 39.6854L14.3073 39.9879C14.3981 39.9576 14.4586 39.9274 14.5493 39.8971C14.64 39.8669 14.7308 39.8367 14.8215 39.8064L14.8518 39.3527C14.8518 39.2922 14.882 39.2014 14.9425 39.1712C15.003 39.1107 15.0635 39.1107 15.124 39.1107L15.6685 39.1409C15.729 39.1409 15.7895 39.1712 15.85 39.2317C15.9105 39.2922 15.9105 39.3527 15.9105 39.4132L15.8802 39.8064C15.971 39.8367 16.0617 39.8669 16.1524 39.8971C16.2432 39.9274 16.3037 39.9879 16.3944 40.0181L16.7574 39.7459C16.8179 39.6854 16.8784 39.6854 16.9389 39.6854C16.9994 39.6854 17.0901 39.7157 17.1204 39.7762L17.4834 40.1996C17.5439 40.2601 17.5439 40.3206 17.5439 40.3811C17.5439 40.4416 17.5136 40.5324 17.4531 40.5626L17.1506 40.8348C17.1809 40.9256 17.2414 41.0163 17.2716 41.0768C17.3019 41.1676 17.3321 41.2583 17.3624 41.3491L17.8161 41.3793C17.8766 41.3793 17.9673 41.4096 17.9976 41.47C18.0581 41.5305 18.0581 41.591 18.0581 41.6515L17.9976 42.196C17.9976 42.2565 17.9673 42.317 17.9068 42.3775C17.8463 42.438 17.7858 42.438 17.7253 42.438L17.3019 42.4077C17.2716 42.4985 17.2414 42.5892 17.2111 42.68C17.1809 42.7707 17.1204 42.8312 17.0901 42.9219L17.3926 43.2547C17.4531 43.3152 17.4531 43.3757 17.4531 43.4362C17.4531 43.4967 17.4229 43.5874 17.3624 43.6177L16.9389 43.9806C16.8784 44.0109 16.8179 44.0411 16.7574 44.0411C16.6969 44.0411 16.6062 44.0109 16.5759 43.9504L16.3037 43.6479C16.2129 43.6782 16.1222 43.7386 16.0617 43.7689C15.971 43.7991 15.8802 43.8294 15.7895 43.8596L15.7592 44.3134C15.7592 44.3739 15.729 44.4646 15.6685 44.4949C15.608 44.5553 15.5475 44.5553 15.487 44.5553L14.9425 44.4949C14.882 44.4949 14.8215 44.4646 14.761 44.4041C14.7005 44.3436 14.7005 44.2831 14.7005 44.2226L14.7308 43.8294C14.64 43.7991 14.5493 43.7689 14.4586 43.7386C14.3678 43.7084 14.3073 43.6479 14.2166 43.6177L13.8838 43.8899C13.7629 43.9806 13.6116 43.9806 13.5209 43.8596L13.1579 43.4362C13.1276 43.3757 13.0974 43.3152 13.0974 43.2547C13.0974 43.1942 13.1276 43.1337 13.1881 43.0732L13.4906 42.801C13.4604 42.7102 13.3999 42.6195 13.3696 42.559C13.3394 42.4682 13.3091 42.3775 13.2789 42.2867L12.8554 42.2565C12.7949 42.2565 12.7042 42.2262 12.6739 42.1657C12.6134 42.1053 12.6134 42.0448 12.6134 41.9843L12.6739 41.4398C12.6739 41.3793 12.7042 41.2886 12.7647 41.2583C12.8252 41.1978 12.8857 41.1978 12.9764 41.1978L13.3696 41.2281C13.3999 41.1373 13.4301 41.0466 13.4604 40.9558C13.4906 40.8651 13.5511 40.8046 13.5814 40.7138L13.2789 40.3811C13.2184 40.3206 13.2184 40.2601 13.2184 40.1996C13.2184 40.1391 13.2486 40.0484 13.3091 40.0181L13.6419 39.6552ZM15.3358 40.8953C15.2148 40.8953 15.0635 40.8953 14.9425 40.9558C14.7005 41.0466 14.4888 41.1978 14.3981 41.4398C14.2771 41.6818 14.2468 41.954 14.3376 42.196C14.3678 42.317 14.4283 42.438 14.5191 42.5287C14.6098 42.6195 14.7005 42.7102 14.8215 42.7707C14.9425 42.8312 15.0635 42.8615 15.1845 42.8917C15.3055 42.8917 15.4567 42.8917 15.5777 42.8312C15.8197 42.7707 16.0315 42.5892 16.1222 42.3472C16.2432 42.1053 16.2734 41.833 16.1827 41.591C16.1222 41.3491 15.9407 41.1373 15.6987 41.0163C15.5777 40.9256 15.4567 40.8953 15.3358 40.8953ZM22.1113 35.2692C21.8391 35.2994 21.5971 35.3599 21.3551 35.4809C21.1131 35.6019 20.9316 35.7532 20.7501 35.9649C20.5989 36.1464 20.4779 36.3884 20.3872 36.6304C20.3267 36.8723 20.2964 37.1446 20.3267 37.4168C20.3569 37.689 20.4174 37.931 20.5384 38.173C20.6594 38.415 20.8106 38.5965 21.0224 38.778C21.2341 38.9292 21.4459 39.0502 21.6878 39.1409C21.9298 39.2317 22.2021 39.2619 22.4743 39.2317C22.7465 39.2014 22.9885 39.1409 23.2305 39.02C23.4725 38.899 23.654 38.7477 23.8354 38.536C24.3497 37.931 24.4404 37.0538 24.0774 36.3279C23.9564 36.1161 23.8052 35.9044 23.5935 35.7229C23.412 35.5717 23.17 35.4507 22.928 35.3599C22.6558 35.2692 22.3835 35.239 22.1113 35.2692Z" fill="#FBC800"/>
<path d="M1.60315 1.3309C1.42166 0.786437 1.75439 0.181476 2.29885 -1.22275e-05C2.3291 -1.22275e-05 2.3896 -0.0302603 2.41984 -0.0302603C3.05505 -0.241996 3.75076 0.0604839 4.05324 0.665445C5.59589 4.53719 4.47671 7.25952 3.50877 9.67936C2.66183 11.7362 1.96612 13.5209 3.8415 15.5172C4.23473 15.8802 4.23473 16.5154 3.8415 16.8784C3.78101 16.9389 3.69026 16.9994 3.62977 17.0599C3.05505 17.4229 2.29885 17.3321 1.81488 16.8481C-0.937687 13.9141 -0.0302455 11.6152 1.05868 8.95341C1.93588 6.86629 2.87357 4.53719 1.60315 1.3309Z" fill="#FBC800"/>
<path d="M25.8923 1.3309C25.7108 0.786437 26.0133 0.181476 26.588 -1.22275e-05C26.6183 -1.22275e-05 26.6788 -0.0302603 26.7393 -0.0302603C27.3745 -0.241996 28.0702 0.0604839 28.3727 0.665445C29.8851 4.53719 28.7659 7.25952 27.7979 9.64911C26.951 11.706 26.2553 13.4906 28.1307 15.487C28.5239 15.85 28.5239 16.4852 28.1307 16.8481C28.0702 16.9086 27.9794 16.9691 27.9189 17.0296C27.3442 17.3926 26.588 17.3019 26.1041 16.8481C23.3515 13.9141 24.2589 11.6455 25.3479 8.95341C26.1948 6.86629 27.1627 4.53719 25.8923 1.3309Z" fill="#FBC800"/>
<path d="M33.9988 1.3309C33.8173 0.786437 34.1198 0.181476 34.6642 -1.17447e-05C34.6945 -1.17447e-05 34.755 -0.0302598 34.7852 -0.0302598C35.4204 -0.241996 36.1161 0.0604843 36.4186 0.635197C37.9613 4.50695 36.8421 7.25952 35.8742 9.64911C35.0272 11.706 34.3315 13.4906 36.2069 15.487C36.6001 15.85 36.6001 16.4852 36.2069 16.8481C36.1464 16.9086 36.0556 16.9691 35.9952 17.0296C35.4204 17.3926 34.6642 17.3019 34.1803 16.8179C31.4277 13.8838 32.3351 11.6152 33.4241 8.92316C34.3013 6.89654 35.239 4.50695 33.9988 1.3309Z" fill="#FBC800"/>
<path d="M9.70961 1.3309C9.52812 0.786437 9.83061 0.181476 10.3751 -1.22275e-05C10.4053 -1.22275e-05 10.4658 -0.0302603 10.5263 -0.0302603C11.1615 -0.241996 11.8572 0.0604839 12.1597 0.665445C13.6721 4.53719 12.5529 7.25952 11.585 9.64911C10.738 11.706 10.0423 13.4906 11.9177 15.487C12.3109 15.85 12.3109 16.4852 11.9177 16.8481C11.8572 16.9086 11.7665 16.9691 11.706 17.0296C11.1313 17.3926 10.3751 17.3019 9.8911 16.8481C7.13853 13.9141 8.04597 11.6455 9.1349 8.95341C10.0121 6.86629 10.9498 4.53719 9.70961 1.3309Z" fill="#FBC800"/>
<path d="M17.7858 1.3309C17.6044 0.786437 17.9068 0.181476 18.4513 -1.17447e-05C18.4815 -1.17447e-05 18.542 -0.0302598 18.5723 -0.0302598C19.2075 -0.241996 19.9032 0.0604843 20.2057 0.635197C21.7483 4.50695 20.6292 7.25952 19.6612 9.64911C18.8143 11.706 18.1186 13.4906 19.9939 15.487C20.3872 15.85 20.3872 16.4852 19.9939 16.8481C19.9334 16.9086 19.8427 16.9691 19.7822 17.0296C19.2075 17.3926 18.4513 17.3019 17.9673 16.8179C15.2148 13.9141 16.1524 11.6152 17.2414 8.95341C18.0883 6.89654 19.0563 4.50695 17.7858 1.3309Z" fill="#FBC800"/>
</g>
<defs>
<clipPath id="clip0_4_45">
<rect width="37.1748" height="50" fill="white"/>
</clipPath>
</defs>
</svg>
