<svg width="66" height="50" viewBox="0 0 66 50" fill="none" xmlns="http://www.w3.org/2000/svg">
<g clip-path="url(#clip0_4_69)">
<path fill-rule="evenodd" clip-rule="evenodd" d="M3.47594 20.8556C2.6738 21.016 1.71123 18.9305 2.45989 18.5562C14.3316 11.7112 15.5615 17.3797 27.3262 20.107L27.4866 19.6792C27.861 18.6631 27.861 18.984 29.0374 19.3048L29.6257 19.4652C31.6043 20 30.6952 19.8396 32.2995 18.8235C35.8289 16.5775 41.2299 17.1123 44.8128 19.4118C47.9144 21.4439 48.1818 23.1016 48.9305 26.3636C49.6257 29.3583 59.4118 38.1818 65.6684 44.0642L62.6738 47.1658L58.5561 42.8877L54.3315 47.5401C53.2086 48.7701 52.4599 50.107 50.5348 50C49.2513 49.8931 45.9358 48.0214 44.6524 47.3797L39.2513 44.7059C38.2888 43.7968 37.8075 42.5669 37.9144 41.0695C36.4706 41.23 35.2941 40.9091 34.2246 40.107C30.4813 37.1123 32.4599 35.1337 31.9251 31.8717C31.8717 31.6578 31.8182 31.4439 31.7647 31.1765C30.9091 27.754 29.0374 26.6845 26.3102 25.4011C25.4545 25.0267 25.508 25.2406 25.8824 24.3316L25.9893 23.9572C15.8289 21.2834 13.6364 15.9893 3.47594 20.8556ZM2.13904 20.7487C2.6738 23.1551 4.27807 24.3316 4.27807 25.508C4.27807 26.6845 3.74332 27.9144 2.13904 27.9144C0.534759 27.9144 0 26.738 0 25.5615C0 24.3316 1.60428 23.1551 2.13904 20.7487ZM41.6578 37.5936C41.8717 36.9519 41.7647 36.2567 41.1765 35.6685L43.4759 33.7433C44.385 33.1016 45.3476 32.8342 46.5241 32.9412C49.6257 33.3155 54.2246 38.6096 56.5775 40.8021L51.9786 45.9893C49.2513 42.1925 46.2567 37.1658 41.6578 37.5936ZM40.7487 40.1604C41.016 40 41.3369 39.8931 41.7112 39.8931L43.9572 44.0107C42.8342 43.6898 38.3957 41.8717 40.7487 40.1604ZM43.5829 39.4652C45.1872 40.2674 47.4866 42.9947 49.7326 45.9358C50.1604 46.2567 49.6791 47.2727 48.6096 46.4706L47.2192 45.7219C44.6524 44.2246 44.385 42.8877 43.5829 39.4652Z" fill="#FBC800"/>
<path d="M48.0749 7.80749C45.7754 7.80749 44.3315 6.36364 44.3315 4.4385C44.3315 2.51337 45.7754 1.06952 48.0749 1.06952C50.3743 1.06952 51.8182 2.51337 51.8182 4.4385C51.8182 6.36364 50.3743 7.80749 48.0749 7.80749ZM50.4813 14.2781C50.2674 14.5455 49.893 14.9733 49.3048 14.9733H46.5241C46.0428 14.9733 45.8289 14.5989 46.0428 14.2781L55.2941 2.13904C55.508 1.87166 55.8823 1.44385 56.4706 1.44385H59.2513C59.7326 1.44385 59.9465 1.81818 59.7326 2.13904L50.4813 14.2781ZM48.0749 3.26203C47.7005 3.26203 47.3262 3.63636 47.3262 4.4385C47.3262 5.18717 47.7005 5.61497 48.0749 5.61497C48.4492 5.61497 48.8235 5.24064 48.8235 4.4385C48.8235 3.68984 48.4492 3.26203 48.0749 3.26203ZM57.7005 15.2941C55.4011 15.2941 53.9572 13.8503 53.9572 11.9251C53.9572 10 55.4011 8.55615 57.7005 8.55615C60 8.55615 61.4438 10 61.4438 11.9251C61.4438 13.8503 60 15.2941 57.7005 15.2941ZM57.7005 10.8021C57.3262 10.8021 56.9519 11.1765 56.9519 11.9786C56.9519 12.7273 57.3262 13.1551 57.7005 13.1551C58.0749 13.1551 58.4492 12.7807 58.4492 11.9786C58.4492 11.1765 58.0749 10.8021 57.7005 10.8021Z" fill="#FBC800"/>
</g>
<defs>
<clipPath id="clip0_4_69">
<rect width="65.7219" height="50" fill="white"/>
</clipPath>
</defs>
</svg>
