<svg width="69" height="69" viewBox="0 0 69 69" fill="none" xmlns="http://www.w3.org/2000/svg">
<g clip-path="url(#clip0_5_174)">
<path d="M21.0908 40.3084L15.525 20.2958C15.4711 20.1071 15.4442 19.9184 15.4442 19.7432C15.4442 18.5842 16.3875 17.6409 17.5465 17.6409H51.3457C52.5721 17.6409 53.5424 18.6247 53.5424 19.8375C53.5424 19.9588 53.5289 20.0801 53.5154 20.2014L47.7879 54.5397C47.6801 55.227 47.0871 55.7256 46.3863 55.7256C45.699 55.7256 45.1195 55.2405 44.9983 54.5667L40.4567 29.5407L38.3139 40.2411C38.1791 40.9284 37.5592 41.4405 36.8584 41.4405C36.1711 41.4405 35.5781 40.9823 35.4164 40.3219L33.3141 31.926L31.1309 45.0387C31.0231 45.7126 30.4301 46.2112 29.7428 46.2112C29.0555 46.2112 28.476 45.7126 28.3547 45.0387L26.1715 31.926L24.0826 40.2815C23.9074 40.9688 23.2875 41.454 22.5867 41.454C21.886 41.4405 21.2795 40.9823 21.0908 40.3084Z" fill="#FFA300"/>
<path d="M34.5 69C29.8371 69 25.3764 68.0701 21.3064 66.3856C17.0748 64.6336 13.2744 62.073 10.0939 58.8926C6.88652 55.6852 4.33945 51.8713 2.60098 47.6801C0.929883 43.6236 0 39.1629 0 34.5C0 29.8371 0.929883 25.3764 2.61445 21.3064C6.11836 12.8432 12.8432 6.11836 21.3064 2.61445C25.3764 0.929883 29.8371 0 34.5 0C39.1629 0 43.6236 0.929883 47.6936 2.61445C51.9252 4.36641 55.7256 6.92695 58.9061 10.1074C62.1135 13.3148 64.6605 17.1287 66.399 21.3199C68.0836 25.3898 69.0135 29.8371 69.0135 34.5135C69.0135 39.1898 68.0836 43.6371 66.399 47.707C64.6471 51.9387 62.0865 55.7391 58.9061 58.9195C55.6986 62.127 51.8848 64.674 47.6936 66.4125C43.6236 68.0701 39.1629 69 34.5 69ZM11.8998 50.5102L50.5102 11.8998C48.4213 10.4174 46.1168 9.20449 43.6506 8.35547C40.7936 7.3582 37.7209 6.81914 34.5 6.81914C30.74 6.81914 27.1687 7.56035 23.9074 8.90801C20.5248 10.3096 17.4791 12.3715 14.9186 14.932C12.358 17.4926 10.2961 20.5383 8.89453 23.9209C7.54688 27.1822 6.80566 30.7535 6.80566 34.5135C6.80566 37.7209 7.34473 40.7936 8.35547 43.6641C9.21797 46.1033 10.4174 48.4213 11.8998 50.5102ZM55.5504 16.4953L16.4953 55.5504C18.7863 57.5045 21.3873 59.1082 24.2309 60.2402C27.3979 61.507 30.8613 62.1943 34.4865 62.1943C38.2465 62.1943 41.8312 61.4531 45.0791 60.1055C48.4617 58.7039 51.5074 56.642 54.068 54.0949C56.6285 51.5344 58.677 48.4887 60.0785 45.1061C61.4262 41.8447 62.1674 38.2734 62.1674 34.5135C62.1674 30.8748 61.4801 27.4113 60.2133 24.2443C59.0947 21.4008 57.5045 18.7863 55.5504 16.4953Z" fill="#FBC800"/>
</g>
<defs>
<clipPath id="clip0_5_174">
<rect width="69" height="69" fill="white"/>
</clipPath>
</defs>
</svg>
