<svg width="69" height="69" viewBox="0 0 69 69" fill="none" xmlns="http://www.w3.org/2000/svg">
<path d="M31.6849 4.45635C33.4698 3.62979 35.5302 3.62979 37.3151 4.45635L63.5016 16.5553C64.5198 17.0225 65.1667 18.0407 65.1667 19.1668C65.1667 20.2928 64.5198 21.311 63.5016 21.7782L37.3151 33.8772C35.5302 34.7037 33.4698 34.7037 31.6849 33.8772L5.49845 21.7782C4.48022 21.2991 3.83334 20.2808 3.83334 19.1668C3.83334 18.0527 4.48022 17.0225 5.49845 16.5553L31.6849 4.45635ZM57.1287 28.9418L63.5016 31.8886C64.5198 32.3558 65.1667 33.3741 65.1667 34.5001C65.1667 35.6261 64.5198 36.6444 63.5016 37.1116L37.3151 49.2105C35.5302 50.0371 33.4698 50.0371 31.6849 49.2105L5.49845 37.1116C4.48022 36.6324 3.83334 35.6142 3.83334 34.5001C3.83334 33.386 4.48022 32.3558 5.49845 31.8886L11.8714 28.9418L30.0797 37.3511C32.8828 38.6449 36.1172 38.6449 38.9203 37.3511L57.1287 28.9418ZM38.9203 52.6845L57.1287 44.2751L63.5016 47.222C64.5198 47.6892 65.1667 48.7074 65.1667 49.8334C65.1667 50.9595 64.5198 51.9777 63.5016 52.4449L37.3151 64.5438C35.5302 65.3704 33.4698 65.3704 31.6849 64.5438L5.49845 52.4449C4.48022 51.9657 3.83334 50.9475 3.83334 49.8334C3.83334 48.7194 4.48022 47.6892 5.49845 47.222L11.8714 44.2751L30.0797 52.6845C32.8828 53.9782 36.1172 53.9782 38.9203 52.6845Z" fill="#FBC800"/>
</svg>
