<svg width="69" height="69" viewBox="0 0 69 69" fill="none" xmlns="http://www.w3.org/2000/svg">
<g clip-path="url(#clip0_5_181)">
<path fill-rule="evenodd" clip-rule="evenodd" d="M22.0643 33.2369V36.6616C22.0643 43.5111 25.096 46.8797 32.1139 47.7218V53.3362H37.223V47.6096C44.1286 46.9358 47.2726 42.8935 47.2726 36.2125V33.1808H48.2832C49.1815 33.1808 49.9113 32.4509 49.9113 31.5526V29.756C49.9113 28.8577 49.1815 28.1279 48.2832 28.1279H43.511V18.2467C43.511 16.8431 42.3881 15.7202 40.9284 15.7202C39.5248 15.7202 38.402 16.8431 38.3458 18.2467V28.1279H30.8226V18.2467C30.8226 16.8431 29.6998 15.7202 28.24 15.7202C26.8365 15.7202 25.7136 16.8431 25.7136 18.2467V28.1279H20.773C19.8747 28.1279 19.1448 28.8577 19.1448 29.756V31.6087C19.1448 32.507 19.8747 33.1808 20.773 33.1808H22.0643V33.2369Z" fill="#FFA300"/>
<path d="M34.4719 0C15.4955 0 0.0561463 15.4394 0.112289 34.4719C0.168433 53.5045 15.5517 68.8877 34.5842 68.8877C53.6168 68.8877 69 53.4483 69 34.4158C69 20.4923 60.5785 7.97234 47.7217 2.63873C43.511 0.898291 39.0195 0 34.4719 0ZM11.9024 18.4711L50.5289 57.0976C42.725 62.5997 32.6753 63.7225 23.917 60.0732C17.1237 57.2661 11.7339 51.8763 8.92677 45.083C7.52319 41.7144 6.84947 38.1212 6.84947 34.4719C6.79333 28.7453 8.58991 23.1871 11.9024 18.4711ZM55.5256 52.4939L16.5061 13.4744C28.1278 3.59316 45.6444 4.99675 55.5256 16.6184C64.3401 26.9487 64.3401 42.1635 55.5256 52.4939Z" fill="#FBC800"/>
</g>
<defs>
<clipPath id="clip0_5_181">
<rect width="69" height="69" fill="white"/>
</clipPath>
</defs>
</svg>
