<svg width="110" height="110" viewBox="0 0 110 110" fill="none" xmlns="http://www.w3.org/2000/svg">
<path d="M55 0C47.7773 -8.61299e-08 40.6253 1.42262 33.9524 4.18663C27.2795 6.95063 21.2163 11.0019 16.1091 16.1091C11.0019 21.2163 6.95063 27.2795 4.18663 33.9524C1.42262 40.6253 -2.29585e-07 47.7773 0 55C2.29585e-07 62.2227 1.42262 69.3747 4.18663 76.0476C6.95064 82.7205 11.0019 88.7837 16.1091 93.8909C21.2164 98.9981 27.2795 103.049 33.9524 105.813C40.6253 108.577 47.7773 110 55 110L55 99C49.2218 99 43.5003 97.8619 38.1619 95.6507C32.8236 93.4395 27.9731 90.1985 23.8873 86.1127C19.8015 82.0269 16.5605 77.1764 14.3493 71.8381C12.1381 66.4997 11 60.7782 11 55C11 49.2218 12.1381 43.5003 14.3493 38.1619C16.5605 32.8236 19.8015 27.9731 23.8873 23.8873C27.9731 19.8015 32.8236 16.5605 38.1619 14.3493C43.5003 12.1381 49.2218 11 55 11L55 0Z" fill="#EDEDED"/>
<mask id="path-2-inside-1_73_117" fill="white">
<path d="M55 0C69.5869 1.73947e-07 83.5764 5.79463 93.8909 16.1091C104.205 26.4236 110 40.4131 110 55C110 69.5869 104.205 83.5764 93.8909 93.8909C83.5764 104.205 69.5869 110 55 110L55 99C66.6695 99 77.8611 94.3643 86.1127 86.1127C94.3643 77.8611 99 66.6695 99 55C99 43.3305 94.3643 32.1389 86.1127 23.8873C77.8611 15.6357 66.6695 11 55 11L55 0Z"/>
</mask>
<path d="M55 0C69.5869 1.73947e-07 83.5764 5.79463 93.8909 16.1091C104.205 26.4236 110 40.4131 110 55C110 69.5869 104.205 83.5764 93.8909 93.8909C83.5764 104.205 69.5869 110 55 110L55 99C66.6695 99 77.8611 94.3643 86.1127 86.1127C94.3643 77.8611 99 66.6695 99 55C99 43.3305 94.3643 32.1389 86.1127 23.8873C77.8611 15.6357 66.6695 11 55 11L55 0Z" fill="#FBC800" stroke="#FDB600" stroke-width="4" mask="url(#path-2-inside-1_73_117)"/>
<g clip-path="url(#clip0_73_117)">
<path d="M39.25 37.8125C38.3906 37.8125 37.6875 38.5156 37.6875 39.375V70.625C37.6875 71.4844 38.3906 72.1875 39.25 72.1875H61.125V64.375C61.125 62.6465 62.5215 61.25 64.25 61.25H72.0625V39.375C72.0625 38.5156 71.3594 37.8125 70.5 37.8125H39.25ZM61.125 76.875H39.25C35.8027 76.875 33 74.0723 33 70.625V39.375C33 35.9277 35.8027 33.125 39.25 33.125H70.5C73.9473 33.125 76.75 35.9277 76.75 39.375V61.25V61.7871C76.75 63.4473 76.0957 65.0391 74.9238 66.2109L66.0859 75.0488C64.9141 76.2207 63.3223 76.875 61.6621 76.875H61.125Z" fill="#FBC800"/>
</g>
<defs>
<clipPath id="clip0_73_117">
<rect width="43.75" height="50" fill="white" transform="translate(33 30)"/>
</clipPath>
</defs>
</svg>
