<svg width="110" height="110" viewBox="0 0 110 110" fill="none" xmlns="http://www.w3.org/2000/svg">
<path d="M55 0C47.7773 -8.61299e-08 40.6253 1.42262 33.9524 4.18663C27.2795 6.95064 21.2163 11.0019 16.1091 16.1091C11.0019 21.2164 6.95063 27.2795 4.18662 33.9524C1.42262 40.6253 -1.0906e-06 47.7773 0 55L11 55C11 49.2218 12.1381 43.5003 14.3493 38.1619C16.5605 32.8236 19.8015 27.9731 23.8873 23.8873C27.9731 19.8015 32.8236 16.5605 38.1619 14.3493C43.5003 12.1381 49.2218 11 55 11L55 0Z" fill="#EDEDED"/>
<mask id="path-2-inside-1_73_118" fill="white">
<path d="M55 0C65.878 1.29719e-07 76.5117 3.22569 85.5564 9.26917C94.6011 15.3126 101.651 23.9025 105.813 33.9524C109.976 44.0023 111.065 55.061 108.943 65.73C106.821 76.3989 101.583 86.199 93.8909 93.8909C86.199 101.583 76.3989 106.821 65.73 108.943C55.061 111.065 44.0023 109.976 33.9524 105.813C23.9025 101.651 15.3126 94.6011 9.26917 85.5564C3.22569 76.5117 -2.59437e-07 65.878 0 55L11 55C11 63.7024 13.5806 72.2093 18.4153 79.4451C23.2501 86.6809 30.122 92.3204 38.1619 95.6507C46.2019 98.981 55.0488 99.8523 63.584 98.1546C72.1191 96.4568 79.9592 92.2662 86.1127 86.1127C92.2662 79.9592 96.4568 72.1191 98.1546 63.584C99.8523 55.0488 98.981 46.2019 95.6507 38.1619C92.3204 30.122 86.6809 23.2501 79.4451 18.4153C72.2093 13.5806 63.7024 11 55 11L55 0Z"/>
</mask>
<path d="M55 0C65.878 1.29719e-07 76.5117 3.22569 85.5564 9.26917C94.6011 15.3126 101.651 23.9025 105.813 33.9524C109.976 44.0023 111.065 55.061 108.943 65.73C106.821 76.3989 101.583 86.199 93.8909 93.8909C86.199 101.583 76.3989 106.821 65.73 108.943C55.061 111.065 44.0023 109.976 33.9524 105.813C23.9025 101.651 15.3126 94.6011 9.26917 85.5564C3.22569 76.5117 -2.59437e-07 65.878 0 55L11 55C11 63.7024 13.5806 72.2093 18.4153 79.4451C23.2501 86.6809 30.122 92.3204 38.1619 95.6507C46.2019 98.981 55.0488 99.8523 63.584 98.1546C72.1191 96.4568 79.9592 92.2662 86.1127 86.1127C92.2662 79.9592 96.4568 72.1191 98.1546 63.584C99.8523 55.0488 98.981 46.2019 95.6507 38.1619C92.3204 30.122 86.6809 23.2501 79.4451 18.4153C72.2093 13.5806 63.7024 11 55 11L55 0Z" fill="#FBC800" stroke="#FDB600" stroke-width="4" mask="url(#path-2-inside-1_73_118)"/>
<g clip-path="url(#clip0_73_118)">
<path d="M76.0547 32.1191C73.916 29.9805 70.459 29.9805 68.3203 32.1191L65.3809 35.0488L74.9414 44.6094L77.8809 41.6699C80.0195 39.5312 80.0195 36.0742 77.8809 33.9355L76.0547 32.1191ZM46.8359 53.6035C46.2402 54.1992 45.7813 54.9316 45.5176 55.7422L42.627 64.4141C42.3438 65.2539 42.5684 66.1816 43.1934 66.8164C43.8184 67.4512 44.7461 67.666 45.5957 67.3828L54.2676 64.4922C55.0684 64.2188 55.8008 63.7695 56.4063 63.1738L72.7441 46.8262L63.1738 37.2559L46.8359 53.6035ZM39.375 36.25C34.1992 36.25 30 40.4492 30 45.625V70.625C30 75.8008 34.1992 80 39.375 80H64.375C69.5508 80 73.75 75.8008 73.75 70.625V61.25C73.75 59.5215 72.3535 58.125 70.625 58.125C68.8965 58.125 67.5 59.5215 67.5 61.25V70.625C67.5 72.3535 66.1035 73.75 64.375 73.75H39.375C37.6465 73.75 36.25 72.3535 36.25 70.625V45.625C36.25 43.8965 37.6465 42.5 39.375 42.5H48.75C50.4785 42.5 51.875 41.1035 51.875 39.375C51.875 37.6465 50.4785 36.25 48.75 36.25H39.375Z" fill="#FBC800"/>
</g>
<defs>
<clipPath id="clip0_73_118">
<rect width="50" height="50" fill="white" transform="translate(30 30)"/>
</clipPath>
</defs>
</svg>
