<svg width="110" height="110" viewBox="0 0 110 110" fill="none" xmlns="http://www.w3.org/2000/svg">
<path d="M55 0C44.122 -1.29719e-07 33.4883 3.22569 24.4436 9.26917C15.3989 15.3126 8.34945 23.9025 4.18663 33.9524C0.023806 44.0023 -1.06538 55.061 1.05681 65.73C3.179 76.3989 8.41724 86.199 16.1091 93.8909C23.801 101.583 33.6011 106.821 44.27 108.943C54.939 111.065 65.9977 109.976 76.0476 105.813C86.0975 101.651 94.6874 94.6011 100.731 85.5564C106.774 76.5117 110 65.878 110 55H99C99 63.7024 96.4194 72.2093 91.5847 79.4451C86.7499 86.6809 79.878 92.3204 71.8381 95.6507C63.7981 98.981 54.9512 99.8523 46.416 98.1546C37.8809 96.4568 30.0408 92.2662 23.8873 86.1127C17.7338 79.9592 13.5432 72.1191 11.8454 63.584C10.1477 55.0488 11.019 46.2019 14.3493 38.1619C17.6796 30.122 23.3191 23.2501 30.5549 18.4153C37.7907 13.5806 46.2976 11 55 11L55 0Z" fill="#EDEDED"/>
<mask id="path-2-inside-1_73_116" fill="white">
<path d="M55 0C62.2227 8.61299e-08 69.3747 1.42262 76.0476 4.18663C82.7205 6.95064 88.7837 11.0019 93.8909 16.1091C98.9981 21.2164 103.049 27.2795 105.813 33.9524C108.577 40.6253 110 47.7773 110 55L99 55C99 49.2218 97.8619 43.5003 95.6507 38.1619C93.4395 32.8236 90.1985 27.9731 86.1127 23.8873C82.0269 19.8015 77.1764 16.5605 71.8381 14.3493C66.4997 12.1381 60.7782 11 55 11L55 0Z"/>
</mask>
<path d="M55 0C62.2227 8.61299e-08 69.3747 1.42262 76.0476 4.18663C82.7205 6.95064 88.7837 11.0019 93.8909 16.1091C98.9981 21.2164 103.049 27.2795 105.813 33.9524C108.577 40.6253 110 47.7773 110 55L99 55C99 49.2218 97.8619 43.5003 95.6507 38.1619C93.4395 32.8236 90.1985 27.9731 86.1127 23.8873C82.0269 19.8015 77.1764 16.5605 71.8381 14.3493C66.4997 12.1381 60.7782 11 55 11L55 0Z" fill="#FBC800" stroke="#FDB600" stroke-width="4" mask="url(#path-2-inside-1_73_116)"/>
<g clip-path="url(#clip0_73_116)">
<path d="M57.3438 32.9998C69.8535 32.9998 80 43.1462 80 55.656C80 56.9548 78.9551 57.9998 77.6562 57.9998C76.3574 57.9998 75.3125 56.9548 75.3125 55.656C75.3125 45.7341 67.2656 37.6873 57.3438 37.6873C56.0449 37.6873 55 36.6423 55 35.3435C55 34.0447 56.0449 32.9998 57.3438 32.9998ZM58.125 51.7498C58.9538 51.7498 59.7487 52.079 60.3347 52.6651C60.9208 53.2511 61.25 54.046 61.25 54.8748C61.25 55.7036 60.9208 56.4984 60.3347 57.0845C59.7487 57.6705 58.9538 57.9998 58.125 57.9998C57.2962 57.9998 56.5013 57.6705 55.9153 57.0845C55.3292 56.4984 55 55.7036 55 54.8748C55 54.046 55.3292 53.2511 55.9153 52.6651C56.5013 52.079 57.2962 51.7498 58.125 51.7498V51.7498ZM55 44.7185C55 43.4197 56.0449 42.3748 57.3438 42.3748C64.6777 42.3748 70.625 48.322 70.625 55.656C70.625 56.9548 69.5801 57.9998 68.2812 57.9998C66.9824 57.9998 65.9375 56.9548 65.9375 55.656C65.9375 50.9099 62.0898 47.0623 57.3438 47.0623C56.0449 47.0623 55 46.0173 55 44.7185ZM41.4746 33.1365C43.3691 32.6189 45.3516 33.5857 46.1035 35.4021L50.0098 44.7771C50.6738 46.3689 50.2148 48.2146 48.877 49.2986L44.0625 53.2439C47.3145 60.1189 52.8809 65.6853 59.7559 68.9373L63.6914 64.1228C64.7852 62.7849 66.6211 62.3259 68.2129 62.99L77.5879 66.8962C79.4043 67.6482 80.3711 69.6306 79.8535 71.5251L77.5098 80.1189C77.0508 81.8181 75.5078 82.9998 73.75 82.9998C49.5898 82.9998 30 63.4099 30 39.2498C30 37.4919 31.1816 35.949 32.8809 35.4802L41.4746 33.1365V33.1365Z" fill="#FBC800"/>
</g>
<defs>
<clipPath id="clip0_73_116">
<rect width="50" height="50" fill="white" transform="translate(30 33)"/>
</clipPath>
</defs>
</svg>
