<svg width="56" height="50" viewBox="0 0 56 50" fill="none" xmlns="http://www.w3.org/2000/svg">
<path fill-rule="evenodd" clip-rule="evenodd" d="M14.3932 5.73578C14.3932 4.69025 13.9633 3.74243 13.2793 3.05843C12.5953 2.37444 11.6474 1.9445 10.6019 1.9445C9.55638 1.9445 8.61833 2.37444 7.92456 3.05843C7.24057 3.74243 6.81063 4.69025 6.81063 5.73578V32.265C4.18214 33.6134 2.39398 36.3494 2.39398 39.4958C2.39398 43.9808 6.02892 47.6158 10.514 47.6158C14.999 47.6158 18.634 43.9808 18.634 39.4958C18.634 36.4178 16.9142 33.7307 14.3834 32.3529L14.3932 5.73578ZM16.3279 30.7309C19.1616 32.6168 21.0279 35.8315 21.0279 39.486C21.0279 45.2902 16.3182 50 10.514 50C4.70979 50 0 45.2902 0 39.486C0 35.7534 1.9445 32.48 4.86613 30.6136V5.73578C4.86613 4.1626 5.51104 2.72621 6.5468 1.69044C7.59234 0.644909 9.01896 0 10.6019 0C12.1751 0 13.6115 0.644909 14.6473 1.68067C15.683 2.71644 16.3279 4.15282 16.3279 5.72601V30.7309Z" fill="#FBC800"/>
<path fill-rule="evenodd" clip-rule="evenodd" d="M12.1654 33.7502V18.1259H8.86264V33.7502C6.37094 34.4636 4.5437 36.7696 4.5437 39.4958C4.5437 42.7985 7.22105 45.4661 10.5238 45.4661C13.8265 45.4661 16.4941 42.7887 16.4941 39.4958C16.4843 36.7598 14.6668 34.4636 12.1654 33.7502Z" fill="#FFA300"/>
<path fill-rule="evenodd" clip-rule="evenodd" d="M36.2028 7.01584C43.3555 7.01584 49.1401 12.8102 49.1401 19.9531C49.1401 27.1057 43.3457 32.8904 36.2028 32.8904C29.0502 32.8904 23.2656 27.096 23.2656 19.9531C23.2656 12.8102 29.06 7.01584 36.2028 7.01584Z" fill="#FBC800"/>
<path fill-rule="evenodd" clip-rule="evenodd" d="M34.1998 13.5431H35.5287C35.9097 13.5431 36.2029 13.7678 36.2029 14.1489V21.4872L41.4599 21.497C41.8507 21.497 42.1634 21.7119 42.1634 22.093V22.8161C42.1634 23.207 41.8507 23.5196 41.4599 23.5196H33.4962V14.2369C33.4962 13.8655 33.8089 13.5431 34.1998 13.5431Z" fill="#353535"/>
</svg>
