<svg width="69" height="69" viewBox="0 0 69 69" fill="none" xmlns="http://www.w3.org/2000/svg">
<g clip-path="url(#clip0_4_143)">
<path fill-rule="evenodd" clip-rule="evenodd" d="M3.98292 16.7171H20.0268C20.3634 16.7171 20.6439 16.9976 20.6439 17.3342V42.0732L9.98536 52.7318H3.98292C1.85121 52.7318 0.0560913 50.9366 0.0560913 48.8049V20.644C0.0560913 18.5122 1.79512 16.7171 3.98292 16.7171ZM62.4927 3.92688L69 10.4342L16.7171 62.7171L10.2098 56.2098L62.4927 3.92688ZM23.7854 16.1001C33.1537 10.9391 42.5219 5.8342 51.8902 0.673221C52.7878 0.168343 53.7415 1.51468 53.7415 2.52444V8.97566L23.3927 39.3244V16.4927C23.3927 16.2683 23.6171 16.2122 23.7854 16.1001ZM53.7415 29.5635V66.3635C53.7415 67.4293 52.7317 68.8318 51.778 68.3269L28.2171 55.0879L53.7415 29.5635Z" fill="#FBC800"/>
</g>
<defs>
<clipPath id="clip0_4_143">
<rect width="69" height="69" fill="white"/>
</clipPath>
</defs>
</svg>
