<svg width="110" height="110" viewBox="0 0 110 110" fill="none" xmlns="http://www.w3.org/2000/svg">
<mask id="path-1-inside-1_73_119" fill="white">
<path d="M110 55C110 85.3757 85.3757 110 55 110C24.6243 110 0 85.3757 0 55C0 24.6243 24.6243 0 55 0C85.3757 0 110 24.6243 110 55ZM11 55C11 79.3005 30.6995 99 55 99C79.3005 99 99 79.3005 99 55C99 30.6995 79.3005 11 55 11C30.6995 11 11 30.6995 11 55Z"/>
</mask>
<path d="M110 55C110 85.3757 85.3757 110 55 110C24.6243 110 0 85.3757 0 55C0 24.6243 24.6243 0 55 0C85.3757 0 110 24.6243 110 55ZM11 55C11 79.3005 30.6995 99 55 99C79.3005 99 99 79.3005 99 55C99 30.6995 79.3005 11 55 11C30.6995 11 11 30.6995 11 55Z" fill="#FBC800" stroke="#FDB600" stroke-width="4" mask="url(#path-1-inside-1_73_119)"/>
<g clip-path="url(#clip0_73_119)">
<path d="M38.75 35C36.6797 35 35 36.6879 35 38.7684V42.5368H31.25C30.5625 42.5368 30 43.102 30 43.7929C30 44.4838 30.5625 45.049 31.25 45.049H35H51.25C51.9375 45.049 52.5 45.6143 52.5 46.3051C52.5 46.996 51.9375 47.5613 51.25 47.5613H35H33.75C33.0625 47.5613 32.5 48.1265 32.5 48.8174C32.5 49.5083 33.0625 50.0735 33.75 50.0735H35H48.75C49.4375 50.0735 50 50.6388 50 51.3297C50 52.0205 49.4375 52.5858 48.75 52.5858H35H31.25C30.5625 52.5858 30 53.151 30 53.8419C30 54.5328 30.5625 55.098 31.25 55.098H35H46.25C46.9375 55.098 47.5 55.6633 47.5 56.3542C47.5 57.045 46.9375 57.6103 46.25 57.6103H35V67.6593C35 71.8202 38.3594 75.1961 42.5 75.1961C46.6406 75.1961 50 71.8202 50 67.6593H60C60 71.8202 63.3594 75.1961 67.5 75.1961C71.6406 75.1961 75 71.8202 75 67.6593H77.5C78.8828 67.6593 80 66.5367 80 65.1471C80 63.7575 78.8828 62.6348 77.5 62.6348V57.6103V55.098V53.6299C77.5 52.2953 76.9766 51.0156 76.0391 50.0735L70 44.0049C69.0625 43.0628 67.7891 42.5368 66.4609 42.5368H62.5V38.7684C62.5 36.6879 60.8203 35 58.75 35H38.75ZM72.5 53.6299V55.098H62.5V47.5613H66.4609L72.5 53.6299ZM42.5 71.4277C40.4297 71.4277 38.75 69.7398 38.75 67.6593C38.75 65.5789 40.4297 63.8909 42.5 63.8909C44.5703 63.8909 46.25 65.5789 46.25 67.6593C46.25 69.7398 44.5703 71.4277 42.5 71.4277ZM71.25 67.6593C71.25 69.7398 69.5703 71.4277 67.5 71.4277C65.4297 71.4277 63.75 69.7398 63.75 67.6593C63.75 65.5789 65.4297 63.8909 67.5 63.8909C69.5703 63.8909 71.25 65.5789 71.25 67.6593Z" fill="#FBC800"/>
</g>
<defs>
<clipPath id="clip0_73_119">
<rect width="50" height="40.1961" fill="white" transform="translate(30 35)"/>
</clipPath>
</defs>
</svg>
